# This file uses centimeters as units for non-parametric coordinates.

mtllib boeken.mtl
g default
v -2.698344 1.514798 1.318997
v -2.397838 1.614107 1.318997
v -2.960130 2.719766 1.318997
v -2.659624 2.819074 1.318997
v -2.960130 2.719766 0.426428
v -2.659624 2.819074 0.426428
v -2.698344 1.514798 0.426428
v -2.397838 1.614107 0.426428
v -2.688365 1.516201 1.290498
v -2.407048 1.609168 1.290498
v -2.947184 2.707510 1.290498
v -2.665867 2.800477 1.290498
v -2.947184 2.707510 0.454927
v -2.665867 2.800477 0.454927
v -2.697576 1.558600 0.454927
v -2.407048 1.609168 0.454927
v -3.226233 1.502397 1.408253
v -2.915126 1.502397 1.408253
v -3.226233 2.513863 1.408253
v -2.915126 2.513863 1.408253
v -3.226233 2.513863 0.337172
v -2.915126 2.513863 0.337172
v -3.226233 1.502397 0.337172
v -2.915126 1.502397 0.337172
v -3.216300 1.500914 1.374056
v -2.925059 1.500914 1.374056
v -3.216300 2.500914 1.374056
v -2.925059 2.500914 1.374056
v -3.216300 2.500914 0.371369
v -2.925059 2.500914 0.371369
v -3.216300 1.536504 0.371369
v -2.925059 1.500914 0.371369
v -2.392557 1.489654 1.397842
v -2.081450 1.489654 1.397842
v -2.392557 2.298827 1.397842
v -2.081450 2.298827 1.397842
v -2.392557 2.298827 0.585671
v -2.081450 2.298827 0.585671
v -2.392557 1.489654 0.585671
v -2.081450 1.489654 0.585671
v -2.382624 1.488467 1.371911
v -2.091383 1.488467 1.371911
v -2.382624 2.288467 1.371911
v -2.091383 2.288467 1.371911
v -2.382624 2.288467 0.611603
v -2.091383 2.288467 0.611603
v -2.382624 1.516939 0.611603
v -2.091383 1.488467 0.611603
v -2.083663 1.577137 1.497510
v -1.783157 1.505564 1.497510
v -1.821877 2.445583 1.497510
v -1.521370 2.374009 1.497510
v -1.821877 2.445583 0.247915
v -1.521370 2.374009 0.247915
v -2.083663 1.577137 0.247915
v -1.783157 1.505564 0.247915
v -2.074452 1.573578 1.457613
v -1.793136 1.506575 1.457613
v -1.815633 2.432179 1.457613
v -1.534317 2.365176 1.457613
v -1.815633 2.432179 0.287812
v -1.534317 2.365176 0.287812
v -2.065241 1.604136 0.287812
v -1.793136 1.506575 0.287812
v -1.530460 1.501235 1.374551
v -1.219353 1.501235 1.374551
v -1.530460 2.804902 1.374551
v -1.219353 2.804902 1.374551
v -1.530460 2.804902 0.481982
v -1.219353 2.804902 0.481982
v -1.530460 1.501235 0.481982
v -1.219353 1.501235 0.481982
v -1.520527 1.499323 1.346052
v -1.229286 1.499323 1.346052
v -1.520527 2.788212 1.346052
v -1.229286 2.788212 1.346052
v -1.520527 2.788212 0.510481
v -1.229286 2.788212 0.510481
v -1.520527 1.545194 0.510481
v -1.229286 1.499323 0.510481
vt 0.375000 0.000000
vt 0.625000 0.000000
vt 0.375000 0.250000
vt 0.625000 0.250000
vt 0.375000 0.500000
vt 0.625000 0.500000
vt 0.375000 0.750000
vt 0.625000 0.750000
vt 0.875000 0.000000
vt 0.875000 0.250000
vt 0.125000 0.000000
vt 0.125000 0.250000
vt 0.375000 0.000000
vt 0.625000 0.000000
vt 0.625000 0.250000
vt 0.375000 0.250000
vt 0.625000 0.500000
vt 0.375000 0.500000
vt 0.625000 0.750000
vt 0.375000 0.750000
vt 0.625000 1.000000
vt 0.375000 1.000000
vt 0.875000 0.000000
vt 0.875000 0.250000
vt 0.125000 0.000000
vt 0.125000 0.250000
vt 0.375000 0.500000
vt 0.625000 0.500000
vt 0.625000 0.750000
vt 0.375000 0.750000
vt 0.625000 0.000000
vt 0.875000 0.000000
vt 0.875000 0.250000
vt 0.625000 0.250000
vt 0.125000 0.000000
vt 0.375000 0.000000
vt 0.375000 0.250000
vt 0.125000 0.250000
vt 0.375000 0.000000
vt 0.625000 0.000000
vt 0.625000 0.250000
vt 0.375000 0.250000
vt 0.625000 0.500000
vt 0.375000 0.500000
vt 0.625000 0.750000
vt 0.375000 0.750000
vt 0.625000 1.000000
vt 0.375000 1.000000
vt 0.875000 0.000000
vt 0.875000 0.250000
vt 0.125000 0.000000
vt 0.125000 0.250000
vt 0.375000 0.500000
vt 0.625000 0.500000
vt 0.625000 0.750000
vt 0.375000 0.750000
vt 0.625000 0.000000
vt 0.875000 0.000000
vt 0.875000 0.250000
vt 0.625000 0.250000
vt 0.125000 0.000000
vt 0.375000 0.000000
vt 0.375000 0.250000
vt 0.125000 0.250000
vt 0.375000 0.000000
vt 0.625000 0.000000
vt 0.625000 0.250000
vt 0.375000 0.250000
vt 0.625000 0.500000
vt 0.375000 0.500000
vt 0.625000 0.750000
vt 0.375000 0.750000
vt 0.625000 1.000000
vt 0.375000 1.000000
vt 0.875000 0.000000
vt 0.875000 0.250000
vt 0.125000 0.000000
vt 0.125000 0.250000
vt 0.375000 0.500000
vt 0.625000 0.500000
vt 0.625000 0.750000
vt 0.375000 0.750000
vt 0.625000 0.000000
vt 0.875000 0.000000
vt 0.875000 0.250000
vt 0.625000 0.250000
vt 0.125000 0.000000
vt 0.375000 0.000000
vt 0.375000 0.250000
vt 0.125000 0.250000
vt 0.375000 0.000000
vt 0.625000 0.000000
vt 0.625000 0.250000
vt 0.375000 0.250000
vt 0.625000 0.500000
vt 0.375000 0.500000
vt 0.625000 0.750000
vt 0.375000 0.750000
vt 0.625000 1.000000
vt 0.375000 1.000000
vt 0.875000 0.000000
vt 0.875000 0.250000
vt 0.125000 0.000000
vt 0.125000 0.250000
vt 0.375000 0.500000
vt 0.625000 0.500000
vt 0.625000 0.750000
vt 0.375000 0.750000
vt 0.625000 0.000000
vt 0.875000 0.000000
vt 0.875000 0.250000
vt 0.625000 0.250000
vt 0.125000 0.000000
vt 0.375000 0.000000
vt 0.375000 0.250000
vt 0.125000 0.250000
vt 0.375000 0.000000
vt 0.625000 0.000000
vt 0.625000 0.250000
vt 0.375000 0.250000
vt 0.625000 0.500000
vt 0.375000 0.500000
vt 0.625000 0.750000
vt 0.375000 0.750000
vt 0.625000 1.000000
vt 0.375000 1.000000
vt 0.875000 0.000000
vt 0.875000 0.250000
vt 0.125000 0.000000
vt 0.125000 0.250000
vn 0.000000 0.000000 -1.000000
vn 0.000000 0.000000 -1.000000
vn 0.000000 0.000000 -1.000000
vn 0.000000 0.000000 -1.000000
vn 0.977204 0.212303 0.000000
vn 0.977204 0.212303 0.000000
vn 0.977204 0.212303 0.000000
vn 0.977204 0.212303 0.000000
vn -0.977204 -0.212304 0.000000
vn -0.977204 -0.212304 0.000000
vn -0.977204 -0.212304 0.000000
vn -0.977204 -0.212304 0.000000
vn 0.000000 0.000000 1.000000
vn 0.000000 0.000000 1.000000
vn 0.000000 0.000000 1.000000
vn 0.000000 0.000000 1.000000
vn -0.313781 0.949495 0.000000
vn -0.313781 0.949495 0.000000
vn -0.313781 0.949495 0.000000
vn -0.313781 0.949495 0.000000
vn 0.000000 0.000000 -1.000000
vn 0.000000 0.000000 -1.000000
vn 0.000000 0.000000 -1.000000
vn 0.000000 0.000000 -1.000000
vn 0.243370 -0.969586 -0.025941
vn 0.243370 -0.969586 -0.025941
vn 0.243370 -0.969586 -0.025941
vn 0.243370 -0.969586 -0.025941
vn 0.977204 0.212304 0.000000
vn 0.977204 0.212304 0.000000
vn 0.977204 0.212304 0.000000
vn 0.977204 0.212304 0.000000
vn -0.977204 -0.212303 0.000000
vn -0.977204 -0.212303 0.000000
vn -0.977204 -0.212303 0.000000
vn -0.977204 -0.212303 0.000000
vn 0.000000 0.000000 -1.000000
vn 0.000000 0.000000 -1.000000
vn 0.000000 0.000000 -1.000000
vn 0.000000 0.000000 -1.000000
vn 1.000000 0.000000 0.000000
vn 1.000000 0.000000 0.000000
vn 1.000000 0.000000 0.000000
vn 1.000000 0.000000 0.000000
vn -1.000000 0.000000 0.000000
vn -1.000000 0.000000 0.000000
vn -1.000000 0.000000 0.000000
vn -1.000000 0.000000 0.000000
vn 0.000000 0.000000 1.000000
vn 0.000000 0.000000 1.000000
vn 0.000000 0.000000 1.000000
vn 0.000000 0.000000 1.000000
vn 0.000000 1.000000 0.000000
vn 0.000000 1.000000 0.000000
vn 0.000000 1.000000 0.000000
vn 0.000000 1.000000 0.000000
vn 0.000000 0.000000 -1.000000
vn 0.000000 0.000000 -1.000000
vn 0.000000 0.000000 -1.000000
vn 0.000000 0.000000 -1.000000
vn -0.060977 -0.997982 -0.017711
vn -0.060977 -0.997982 -0.017711
vn -0.060977 -0.997982 -0.017711
vn -0.060977 -0.997982 -0.017711
vn 1.000000 0.000000 0.000000
vn 1.000000 0.000000 0.000000
vn 1.000000 0.000000 0.000000
vn 1.000000 0.000000 0.000000
vn -1.000000 0.000000 0.000000
vn -1.000000 0.000000 0.000000
vn -1.000000 0.000000 0.000000
vn -1.000000 0.000000 0.000000
vn 0.000000 0.000000 -1.000000
vn 0.000000 0.000000 -1.000000
vn 0.000000 0.000000 -1.000000
vn 0.000000 0.000000 -1.000000
vn 1.000000 0.000000 0.000000
vn 1.000000 0.000000 0.000000
vn 1.000000 0.000000 0.000000
vn 1.000000 0.000000 0.000000
vn -1.000000 0.000000 0.000000
vn -1.000000 0.000000 0.000000
vn -1.000000 0.000000 0.000000
vn -1.000000 0.000000 0.000000
vn 0.000000 0.000000 1.000000
vn 0.000000 0.000000 1.000000
vn 0.000000 0.000000 1.000000
vn 0.000000 0.000000 1.000000
vn 0.000000 1.000000 0.000000
vn 0.000000 1.000000 0.000000
vn 0.000000 1.000000 0.000000
vn 0.000000 1.000000 0.000000
vn 0.000000 0.000000 -1.000000
vn 0.000000 0.000000 -1.000000
vn 0.000000 0.000000 -1.000000
vn 0.000000 0.000000 -1.000000
vn -0.048813 -0.998633 -0.018698
vn -0.048813 -0.998633 -0.018698
vn -0.048813 -0.998633 -0.018698
vn -0.048813 -0.998633 -0.018698
vn 1.000000 0.000000 0.000000
vn 1.000000 0.000000 0.000000
vn 1.000000 0.000000 0.000000
vn 1.000000 0.000000 0.000000
vn -1.000000 0.000000 0.000000
vn -1.000000 0.000000 0.000000
vn -1.000000 0.000000 0.000000
vn -1.000000 0.000000 0.000000
vn 0.000000 0.000000 -1.000000
vn 0.000000 0.000000 -1.000000
vn 0.000000 0.000000 -1.000000
vn 0.000000 0.000000 -1.000000
vn 0.957445 -0.288615 0.000000
vn 0.957445 -0.288615 0.000000
vn 0.957445 -0.288615 0.000000
vn 0.957445 -0.288615 0.000000
vn -0.957445 0.288615 0.000000
vn -0.957445 0.288615 0.000000
vn -0.957445 0.288615 0.000000
vn -0.957445 0.288615 0.000000
vn 0.000000 0.000000 1.000000
vn 0.000000 0.000000 1.000000
vn 0.000000 0.000000 1.000000
vn 0.000000 0.000000 1.000000
vn 0.231696 0.972788 0.000000
vn 0.231696 0.972788 0.000000
vn 0.231696 0.972788 0.000000
vn 0.231696 0.972788 0.000000
vn 0.000000 0.000000 -1.000000
vn 0.000000 0.000000 -1.000000
vn 0.000000 0.000000 -1.000000
vn 0.000000 0.000000 -1.000000
vn -0.284996 -0.958432 -0.013640
vn -0.284996 -0.958432 -0.013640
vn -0.284996 -0.958432 -0.013640
vn -0.284996 -0.958432 -0.013640
vn 0.957445 -0.288615 0.000000
vn 0.957445 -0.288615 0.000000
vn 0.957445 -0.288615 0.000000
vn 0.957445 -0.288615 0.000000
vn -0.957445 0.288615 0.000000
vn -0.957445 0.288615 0.000000
vn -0.957445 0.288615 0.000000
vn -0.957445 0.288615 0.000000
vn 0.000000 0.000000 -1.000000
vn 0.000000 0.000000 -1.000000
vn 0.000000 0.000000 -1.000000
vn 0.000000 0.000000 -1.000000
vn 1.000000 0.000000 0.000000
vn 1.000000 0.000000 0.000000
vn 1.000000 0.000000 0.000000
vn 1.000000 0.000000 0.000000
vn -1.000000 0.000000 0.000000
vn -1.000000 0.000000 0.000000
vn -1.000000 0.000000 0.000000
vn -1.000000 0.000000 0.000000
vn 0.000000 0.000000 1.000000
vn 0.000000 0.000000 1.000000
vn 0.000000 0.000000 1.000000
vn 0.000000 0.000000 1.000000
vn 0.000000 1.000000 0.000000
vn 0.000000 1.000000 0.000000
vn 0.000000 1.000000 0.000000
vn 0.000000 1.000000 0.000000
vn 0.000000 0.000000 -1.000000
vn 0.000000 0.000000 -1.000000
vn 0.000000 0.000000 -1.000000
vn 0.000000 0.000000 -1.000000
vn -0.078479 -0.996540 -0.027354
vn -0.078479 -0.996540 -0.027354
vn -0.078479 -0.996540 -0.027354
vn -0.078479 -0.996540 -0.027354
vn 1.000000 0.000000 0.000000
vn 1.000000 0.000000 0.000000
vn 1.000000 0.000000 0.000000
vn 1.000000 0.000000 0.000000
vn -1.000000 0.000000 0.000000
vn -1.000000 0.000000 0.000000
vn -1.000000 0.000000 0.000000
vn -1.000000 0.000000 0.000000
s off
g pCube24
usemtl initialShadingGroup
f 5/5/1 6/6/2 8/8/3 7/7/4
f 2/2/5 8/9/6 6/10/7 4/4/8
f 7/11/9 1/1/10 3/3/11 5/12/12
f 9/13/13 10/14/14 12/15/15 11/16/16
f 11/16/17 12/15/18 14/17/19 13/18/20
f 13/18/21 14/17/22 16/19/23 15/20/24
f 15/20/25 16/19/26 10/21/27 9/22/28
f 10/14/29 16/23/30 14/24/31 12/15/32
f 15/25/33 9/13/34 11/16/35 13/26/36
f 21/27/37 22/28/38 24/29/39 23/30/40
f 18/31/41 24/32/42 22/33/43 20/34/44
f 23/35/45 17/36/46 19/37/47 21/38/48
f 25/39/49 26/40/50 28/41/51 27/42/52
f 27/42/53 28/41/54 30/43/55 29/44/56
f 29/44/57 30/43/58 32/45/59 31/46/60
f 31/46/61 32/45/62 26/47/63 25/48/64
f 26/40/65 32/49/66 30/50/67 28/41/68
f 31/51/69 25/39/70 27/42/71 29/52/72
f 37/53/73 38/54/74 40/55/75 39/56/76
f 34/57/77 40/58/78 38/59/79 36/60/80
f 39/61/81 33/62/82 35/63/83 37/64/84
f 41/65/85 42/66/86 44/67/87 43/68/88
f 43/68/89 44/67/90 46/69/91 45/70/92
f 45/70/93 46/69/94 48/71/95 47/72/96
f 47/72/97 48/71/98 42/73/99 41/74/100
f 42/66/101 48/75/102 46/76/103 44/67/104
f 47/77/105 41/65/106 43/68/107 45/78/108
f 53/79/109 54/80/110 56/81/111 55/82/112
f 50/83/113 56/84/114 54/85/115 52/86/116
f 55/87/117 49/88/118 51/89/119 53/90/120
f 57/91/121 58/92/122 60/93/123 59/94/124
f 59/94/125 60/93/126 62/95/127 61/96/128
f 61/96/129 62/95/130 64/97/131 63/98/132
f 63/98/133 64/97/134 58/99/135 57/100/136
f 58/92/137 64/101/138 62/102/139 60/93/140
f 63/103/141 57/91/142 59/94/143 61/104/144
f 69/105/145 70/106/146 72/107/147 71/108/148
f 66/109/149 72/110/150 70/111/151 68/112/152
f 71/113/153 65/114/154 67/115/155 69/116/156
f 73/117/157 74/118/158 76/119/159 75/120/160
f 75/120/161 76/119/162 78/121/163 77/122/164
f 77/122/165 78/121/166 80/123/167 79/124/168
f 79/124/169 80/123/170 74/125/171 73/126/172
f 74/118/173 80/127/174 78/128/175 76/119/176
f 79/129/177 73/117/178 75/120/179 77/130/180
