# This file uses centimeters as units for non-parametric coordinates.

mtllib Chair.mtl
g default
v -1.500000 3.000000 1.372832
v 1.500000 3.000000 1.372832
v -1.500000 3.250000 -1.126086
v 1.500000 3.250000 -1.126086
v -1.500000 3.000000 -1.052176
v 1.500000 3.000000 -1.052176
v 1.500000 7.209454 -1.497832
v -1.500000 7.209454 -1.497832
v -1.500000 3.000000 0.872832
v 1.500000 3.000000 0.872832
v -1.500000 3.000000 -0.627168
v 1.500000 3.000000 -0.627168
v 1.425170 3.250000 1.298002
v 1.425170 3.250000 -0.877168
v -1.425170 3.250000 1.298002
v -1.425170 3.250000 -0.877168
v -1.000000 3.000000 1.372832
v 1.000000 3.000000 1.372832
v -1.500000 3.175170 1.372832
v -1.500000 3.074992 -1.126843
v 1.500000 3.175170 1.372832
v 1.500000 3.175170 -0.945339
v 1.425170 7.158182 -1.241960
v 1.500000 7.225734 -1.323421
v -1.500000 3.175170 -0.945339
v -1.500000 7.225734 -1.323421
v -1.425170 7.158182 -1.241960
v 1.500000 3.074992 -1.126843
v -1.000000 3.000000 -1.052176
v 1.000000 3.000000 -1.052176
v -1.188255 3.000000 -0.877168
v -1.250000 3.000000 -0.814996
v -1.375000 0.000000 -1.189996
v -1.313255 0.000000 -1.252168
v -1.187935 3.000000 -0.627168
v -1.250000 3.000000 -0.689662
v -1.312935 0.000000 -1.002168
v -1.375000 0.000000 -1.064662
v -1.000000 3.000000 -0.814674
v -1.062065 3.000000 -0.877168
v -1.187065 0.000000 -1.252168
v -1.125000 0.000000 -1.189674
v -1.000000 3.000000 -0.689340
v -1.000000 3.000000 -0.574322
v -1.061745 3.000000 -0.627168
v -1.125000 0.000000 -1.064340
v -1.186745 0.000000 -1.002168
v -1.250000 3.000000 0.935326
v -1.187935 3.000000 0.872832
v -1.375000 0.000000 1.310326
v -1.312935 0.000000 1.247832
v -1.188255 3.000000 1.122832
v -1.250000 3.000000 1.060660
v -1.313255 0.000000 1.497832
v -1.375000 0.000000 1.435660
v -1.061745 3.000000 0.872832
v -1.000000 3.000000 0.819985
v -1.000000 3.000000 0.935004
v -1.186745 0.000000 1.247832
v -1.125000 0.000000 1.310004
v -1.000000 3.000000 1.060338
v -1.062065 3.000000 1.122832
v -1.125000 0.000000 1.435338
v -1.187065 0.000000 1.497832
v 1.062065 3.000000 -0.877168
v 1.000000 3.000000 -0.814674
v 1.125000 0.000000 -1.189674
v 1.187065 0.000000 -1.252168
v 1.061746 3.000000 -0.627168
v 1.000000 3.000000 -0.574322
v 1.000000 3.000000 -0.689340
v 1.186746 0.000000 -1.002168
v 1.125000 0.000000 -1.064340
v 1.250000 3.000000 -0.814996
v 1.188255 3.000000 -0.877168
v 1.313255 0.000000 -1.252168
v 1.375000 0.000000 -1.189996
v 1.250000 3.000000 -0.689662
v 1.187935 3.000000 -0.627168
v 1.375000 0.000000 -1.064662
v 1.312936 0.000000 -1.002168
v 1.000000 3.000000 0.935004
v 1.000000 3.000000 0.819985
v 1.061746 3.000000 0.872832
v 1.125000 0.000000 1.310004
v 1.186746 0.000000 1.247832
v 1.062065 3.000000 1.122832
v 1.000000 3.000000 1.060338
v 1.187065 0.000000 1.497832
v 1.125000 0.000000 1.435338
v 1.187935 3.000000 0.872832
v 1.250000 3.000000 0.935326
v 1.312936 0.000000 1.247832
v 1.375000 0.000000 1.310326
v 1.250000 3.000000 1.060660
v 1.188255 3.000000 1.122832
v 1.375000 0.000000 1.435660
v 1.313255 0.000000 1.497832
vt 0.383553 0.259870
vt 0.383485 0.473840
vt 0.610831 0.259945
vt 0.613427 0.474146
vt 0.375862 0.197359
vt 0.377408 0.679223
vt 0.636624 0.248885
vt 0.854886 0.175088
vt 0.849718 0.248617
vt 0.375277 0.474149
vt 0.383976 0.475034
vt 0.375525 0.000363
vt 0.377017 0.547514
vt 0.625240 0.000268
vt 0.621173 0.176302
vt 0.377404 0.481864
vt 0.377579 0.499935
vt 0.375125 0.757142
vt 0.867331 0.000367
vt 0.875151 0.075211
vt 0.874862 0.249431
vt 0.624078 0.482215
vt 0.619622 0.499926
vt 0.375000 0.482303
vt 0.678487 0.000335
vt 0.317415 0.000315
vt 0.145333 0.175494
vt 0.822308 0.000195
vt 0.174793 0.000397
vt 0.612709 0.474183
vt 0.619165 0.481879
vt 0.619997 0.673517
vt 0.621645 0.537108
vt 0.419425 0.000467
vt 0.578680 0.000339
vt 0.124918 0.074986
vt 0.132819 0.000398
vt 0.125278 0.248872
vt 0.375149 0.800965
vt 0.420904 0.757414
vt 0.375157 0.941861
vt 0.375283 0.999937
vt 0.575106 0.757351
vt 0.625169 0.757283
vt 0.625213 0.802270
vt 0.419704 0.999774
vt 0.625333 0.943787
vt 0.625405 0.999818
vt 0.575157 0.999784
vt 0.398272 0.782716
vt 0.415735 0.775938
vt 0.421503 0.796416
vt 0.404040 0.803194
vt 0.398272 0.946877
vt 0.415765 0.939390
vt 0.421503 0.961853
vt 0.404010 0.969340
vt 0.569561 0.782751
vt 0.591339 0.775938
vt 0.598481 0.796381
vt 0.576704 0.803194
vt 0.569561 0.946838
vt 0.591302 0.939390
vt 0.598481 0.961891
vt 0.576741 0.969340
vt 0.398272 0.782717
vt 0.404010 0.775938
vt 0.404036 0.803194
vt 0.398272 0.796381
vt 0.415735 0.775938
vt 0.421503 0.782751
vt 0.421503 0.796416
vt 0.415765 0.803194
vt 0.398272 0.946877
vt 0.404040 0.939390
vt 0.404011 0.969340
vt 0.398272 0.961891
vt 0.415765 0.939390
vt 0.421503 0.946838
vt 0.421503 0.961854
vt 0.415735 0.969340
vt 0.569561 0.782750
vt 0.576741 0.775938
vt 0.576704 0.803194
vt 0.569561 0.796416
vt 0.591338 0.775938
vt 0.598481 0.782716
vt 0.598481 0.796381
vt 0.591302 0.803194
vt 0.569561 0.946838
vt 0.576704 0.939390
vt 0.576741 0.969340
vt 0.569561 0.961853
vt 0.591306 0.939390
vt 0.598481 0.946877
vt 0.598481 0.961891
vt 0.591339 0.969340
vt 0.404010 0.775938
vt 0.398272 0.796382
vt 0.421503 0.782751
vt 0.420608 0.807275
vt 0.415764 0.803194
vt 0.404040 0.939390
vt 0.398272 0.961891
vt 0.420678 0.936074
vt 0.421503 0.946839
vt 0.415739 0.969340
vt 0.576737 0.775938
vt 0.571851 0.807379
vt 0.569561 0.796415
vt 0.598481 0.782716
vt 0.591302 0.803194
vt 0.571678 0.936098
vt 0.576705 0.939390
vt 0.569561 0.961853
vt 0.598481 0.946876
vt 0.591339 0.969340
vn 0.000000 -1.000000 0.000000
vn 0.000000 -1.000000 0.000000
vn 0.000000 -1.000000 0.000000
vn 0.000000 -1.000000 0.000000
vn 0.000000 -1.000000 -0.000000
vn 0.000000 -1.000000 0.000000
vn 0.000000 -1.000000 0.000000
vn 0.000000 -1.000000 0.000000
vn 0.000000 -1.000000 0.000000
vn 0.000000 -1.000000 0.000000
vn 0.000000 -1.000000 0.000000
vn -0.046233 0.544518 0.837474
vn -0.034668 0.998379 0.045137
vn 0.034668 0.998379 0.045137
vn 0.017099 0.556820 0.830457
vn 0.000000 -0.089372 -0.995998
vn 0.000000 -0.089372 -0.995998
vn 0.000000 -0.093477 -0.995621
vn 0.000000 -0.093477 -0.995621
vn 0.000000 -1.000000 0.000000
vn 0.000000 -1.000000 0.000000
vn 0.000000 -1.000000 0.000000
vn 0.000000 -1.000000 0.000000
vn -0.999133 0.041631 0.000000
vn -0.999133 0.041631 0.000000
vn -0.999133 0.041631 0.000000
vn -0.999133 0.041631 0.000000
vn 0.000000 0.124035 -0.992278
vn 0.000000 0.124035 -0.992278
vn 0.000000 0.124035 -0.992278
vn 0.000000 0.124035 -0.992278
vn 0.999133 -0.041631 0.000000
vn 0.999133 -0.041631 0.000000
vn 0.999133 -0.041631 0.000000
vn 0.999133 -0.041631 0.000000
vn 0.000000 -0.124035 0.992278
vn 0.000000 -0.124035 0.992278
vn 0.000000 -0.124035 0.992278
vn 0.000000 -0.124035 0.992278
vn -0.999133 0.041631 0.000000
vn -0.999133 0.041631 0.000000
vn -0.999133 0.041631 0.000000
vn -0.999133 0.041631 0.000000
vn 0.000000 -0.124035 -0.992278
vn 0.000000 -0.124035 -0.992278
vn 0.000000 -0.124035 -0.992278
vn 0.000000 -0.124035 -0.992278
vn 0.999133 -0.041631 0.000000
vn 0.999133 -0.041631 0.000000
vn 0.999133 -0.041631 0.000000
vn 0.999133 -0.041631 0.000000
vn 0.000000 0.124035 0.992278
vn 0.000000 0.124035 0.992278
vn 0.000000 0.124035 0.992278
vn 0.000000 0.124035 0.992278
vn -0.999133 -0.041631 0.000000
vn -0.999133 -0.041631 0.000000
vn -0.999133 -0.041631 0.000000
vn -0.999133 -0.041631 0.000000
vn 0.000000 0.124035 -0.992278
vn 0.000000 0.124035 -0.992278
vn 0.000000 0.124035 -0.992278
vn 0.000000 0.124035 -0.992278
vn 0.999133 0.041631 0.000000
vn 0.999133 0.041631 0.000000
vn 0.999133 0.041631 0.000000
vn 0.999133 0.041631 0.000000
vn 0.000000 -0.124035 0.992278
vn 0.000000 -0.124035 0.992278
vn 0.000000 -0.124035 0.992278
vn 0.000000 -0.124035 0.992278
vn -0.999133 -0.041631 0.000000
vn -0.999133 -0.041631 0.000000
vn -0.999133 -0.041631 0.000000
vn -0.999133 -0.041631 0.000000
vn 0.000000 -0.124035 -0.992278
vn 0.000000 -0.124035 -0.992278
vn 0.000000 -0.124035 -0.992278
vn 0.000000 -0.124035 -0.992278
vn 0.999133 0.041631 0.000000
vn 0.999133 0.041631 0.000000
vn 0.999133 0.041631 0.000000
vn 0.999133 0.041631 0.000000
vn 0.000000 0.124035 0.992278
vn 0.000000 0.124035 0.992278
vn 0.000000 0.124035 0.992278
vn 0.000000 0.124035 0.992278
vn 0.000000 -0.705575 -0.708635
vn 0.000000 -0.705575 -0.708636
vn 0.000000 -0.705574 -0.708636
vn 0.707107 0.065716 0.704046
vn 0.707107 0.065716 0.704046
vn 0.707107 0.065716 0.704046
vn 0.707107 0.065716 0.704046
vn -0.795029 0.333391 0.506734
vn -0.707107 0.065716 0.704046
vn -0.707107 0.065716 0.704046
vn 0.707107 0.707107 0.000000
vn 0.707107 0.707107 0.000000
vn -0.707107 0.707107 0.000000
vn 0.000000 0.769762 0.638331
vn 0.000000 0.769762 0.638331
vn 0.000000 0.769762 0.638331
vn 0.000000 0.769762 0.638331
vn 0.000000 -0.705575 -0.708636
vn 0.000000 -0.705575 -0.708635
vn 0.000000 -0.705574 -0.708636
vn 0.000000 0.707107 0.707106
vn 0.000000 0.707107 0.707106
vn 1.000000 0.000000 0.000000
vn 1.000000 0.000000 0.000000
vn 1.000000 0.000000 0.000000
vn 1.000000 0.000000 0.000000
vn 1.000000 0.000000 0.000000
vn -1.000000 0.000000 0.000000
vn -1.000000 0.000000 0.000000
vn -1.000000 0.000000 0.000000
vn -1.000000 0.000000 0.000000
vn -1.000000 0.000000 0.000000
vn -1.000000 0.000000 0.000000
vn -1.000000 0.000000 0.000000
vn 1.000000 0.000000 0.000000
vn 1.000000 0.000000 0.000000
vn 1.000000 0.000000 0.000000
vn -1.000000 0.000000 0.000000
vn 1.000000 0.000000 0.000000
vn -1.000000 0.000000 0.000000
vn 1.000000 0.000000 0.000000
vn 0.000000 0.000000 1.000000
vn 0.000000 0.000000 1.000000
vn 0.000000 0.000000 1.000000
vn 0.000000 0.092936 0.995672
vn 0.000000 0.092936 0.995672
vn 0.000000 0.995672 -0.092934
vn 0.000000 0.995672 -0.092934
vn 0.000000 0.995672 -0.092934
vn 0.000000 0.995672 -0.092934
vn 0.000000 0.004327 -0.999991
vn 0.000000 0.004327 -0.999991
vn 0.000000 0.000000 1.000000
vn 0.000000 0.000000 1.000000
vn 0.000000 0.000000 1.000000
vn -1.000000 0.000000 0.000000
vn 0.000000 -1.000000 -0.000001
vn 0.000000 -1.000000 -0.000000
vn 0.000000 -1.000000 -0.000001
vn 0.000000 -1.000000 0.000000
vn 0.000000 -1.000000 0.000000
vn 0.000000 -1.000000 0.000000
vn 0.000000 -1.000000 0.000000
vn 0.000000 -1.000000 0.000000
vn 0.000000 -1.000000 0.000000
vn 0.000000 -1.000000 0.000000
vn 0.000000 -1.000000 0.000000
vn 0.000000 -1.000000 0.000000
vn 0.000000 -1.000000 0.000000
vn 0.000000 -1.000000 0.000000
vn 0.000000 -1.000000 0.000000
vn 0.000000 -1.000000 0.000000
vn 0.000000 -1.000000 0.000000
vn 0.000000 -1.000000 0.000000
vn 0.000000 -1.000000 0.000000
vn 0.000000 -1.000000 0.000000
vn 0.000000 -1.000000 0.000000
vn 0.000000 -1.000000 0.000000
vn 0.000000 -1.000000 0.000000
vn 0.000000 -1.000000 0.000000
vn 0.000000 -1.000000 0.000000
vn 0.000000 -1.000000 0.000000
vn 0.000000 -1.000000 0.000000
vn -0.704677 0.116842 -0.699841
vn -0.704677 0.116842 -0.699841
vn -0.704677 0.116842 -0.699841
vn -0.704677 0.116842 -0.699841
vn -0.708325 -0.058419 0.703465
vn -0.708325 -0.058419 0.703465
vn -0.708325 -0.058419 0.703465
vn -0.708325 -0.058419 0.703465
vn 0.708325 0.058420 -0.703465
vn 0.708325 0.058419 -0.703465
vn 0.708325 0.058420 -0.703465
vn 0.708325 0.058419 -0.703465
vn 0.704677 -0.116842 0.699842
vn 0.704677 -0.116842 0.699842
vn 0.704677 -0.116842 0.699842
vn 0.704677 -0.116842 0.699842
vn -0.708325 -0.058419 -0.703465
vn -0.708325 -0.058419 -0.703465
vn -0.708325 -0.058419 -0.703465
vn -0.708325 -0.058419 -0.703465
vn -0.704677 0.116842 0.699841
vn -0.704677 0.116842 0.699841
vn -0.704677 0.116842 0.699841
vn -0.704677 0.116842 0.699841
vn 0.704677 -0.116842 -0.699842
vn 0.704677 -0.116842 -0.699842
vn 0.704677 -0.116842 -0.699842
vn 0.704677 -0.116842 -0.699842
vn 0.708325 0.058419 0.703465
vn 0.708325 0.058420 0.703465
vn 0.708325 0.058419 0.703465
vn 0.708325 0.058420 0.703465
vn -0.708325 0.058420 -0.703465
vn -0.708325 0.058420 -0.703465
vn -0.708325 0.058420 -0.703465
vn -0.708325 0.058420 -0.703465
vn -0.704675 -0.116842 0.699844
vn -0.704675 -0.116842 0.699844
vn -0.704675 -0.116842 0.699844
vn -0.704675 -0.116842 0.699844
vn 0.704677 0.116842 -0.699842
vn 0.704677 0.116842 -0.699842
vn 0.704677 0.116842 -0.699842
vn 0.704677 0.116842 -0.699842
vn 0.708327 -0.058419 0.703463
vn 0.708327 -0.058419 0.703463
vn 0.708327 -0.058419 0.703463
vn 0.708327 -0.058419 0.703463
vn -0.704675 -0.116842 -0.699844
vn -0.704675 -0.116842 -0.699844
vn -0.704675 -0.116842 -0.699844
vn -0.704675 -0.116842 -0.699844
vn -0.708325 0.058420 0.703465
vn -0.708325 0.058420 0.703465
vn -0.708325 0.058420 0.703465
vn -0.708325 0.058420 0.703465
vn 0.708327 -0.058419 -0.703463
vn 0.708327 -0.058419 -0.703463
vn 0.708327 -0.058419 -0.703463
vn 0.708327 -0.058419 -0.703463
vn 0.704677 0.116842 0.699842
vn 0.704677 0.116842 0.699842
vn 0.704677 0.116842 0.699842
vn 0.704677 0.116842 0.699842
vn 0.000000 -1.000000 0.000000
vn 0.000000 -1.000000 0.000000
vn 0.000000 -1.000000 0.000000
vn 0.000000 -1.000000 0.000000
vn 0.000000 -1.000000 0.000000
vn 0.000000 -1.000000 0.000000
s 1
g Chair
usemtl initialShadingGroup
f 9/41/1 48/74/2 53/104/3 1/42/4
f 5/18/5 32/66/6 36/99/7 11/39/8
f 1/42/4 52/76/9 62/107/10 17/46/11
s 3
f 16/2/12 15/1/13 13/3/14 14/4/15
s 4
f 4/33/16 3/13/17 8/17/18 7/23/19
s 1
f 18/49/20 87/92/21 96/117/22 2/48/23
s off
f 38/69/24 36/99/25 32/66/26 33/50/27
f 34/67/28 31/98/29 40/70/30 41/51/31
f 42/71/32 39/100/33 43/72/34 46/52/35
f 47/73/36 45/102/37 35/68/38 37/53/39
f 55/77/40 53/104/41 48/74/42 50/54/43
f 51/75/44 49/103/45 56/78/46 59/55/47
f 60/79/48 58/106/49 61/80/50 63/56/51
f 64/81/52 62/107/53 52/76/54 54/57/55
f 73/85/56 71/110/57 66/82/58 67/58/59
f 68/83/60 65/108/61 75/86/62 76/59/63
f 77/87/64 74/111/65 78/88/66 80/60/67
f 81/89/68 79/112/69 69/84/70 72/61/71
f 90/93/72 88/115/73 82/90/74 85/62/75
f 86/91/76 84/114/77 91/94/78 93/63/79
f 94/95/80 92/116/81 95/96/82 97/64/83
f 98/97/84 96/117/85 87/92/86 89/65/87
s 6
f 5/18/88 20/6/89 29/40/90
s off
f 14/4/91 22/22/92 24/31/93 23/30/94
s 3
f 25/10/95 16/2/12 27/11/96 26/16/97
f 13/7/14 21/15/98 22/8/99 14/9/15
f 19/5/100 15/1/13 16/2/12 25/10/95
s off
f 23/30/101 24/31/102 26/16/103 27/11/104
s 6
f 28/32/105 6/44/106 30/43/107
s 3
f 15/1/13 19/5/108 21/15/109 13/3/14
s 6
f 29/40/90 20/6/89 28/32/105 30/43/107
s 7
f 22/8/110 28/20/111 4/21/112
f 22/22/110 4/33/112 7/23/113 24/31/114
s 8
f 3/13/115 25/24/116 26/16/117 8/17/118
f 9/26/119 1/12/120 19/5/121
s 7
f 21/15/122 2/14/123 10/25/124
s 8
f 11/29/125 9/26/119 19/5/121 25/27/116
s 7
f 21/15/122 10/25/124 12/28/126 22/8/110
s 8
f 5/37/127 11/29/125 25/27/116
s 7
f 22/8/110 12/28/126 6/19/128
s 11
f 19/5/129 1/12/130 17/34/131
s 3
f 27/11/132 16/2/12 14/4/15 23/30/133
s off
f 8/17/134 26/16/135 24/31/136 7/23/137
s 4
f 20/6/138 3/13/17 4/33/16 28/32/139
s 11
f 19/5/129 17/34/131 18/35/140 21/15/141
f 21/15/141 18/35/140 2/14/142
s 7
f 22/8/110 6/19/128 28/20/111
s 8
f 20/36/143 25/27/116 3/38/115
f 20/36/143 5/37/127 25/27/116
s 1
f 31/98/144 5/18/5 29/40/145 40/70/146
f 44/101/147 43/72/148 71/110/149 70/109/150
f 56/78/151 45/102/152 44/101/147 57/105/153
f 57/105/153 44/101/147 70/109/150 83/113/154
f 88/115/155 61/80/156 58/106/157 82/90/158
f 65/108/159 30/43/160 6/44/161 75/86/162
f 12/45/163 78/88/164 74/111/165 6/44/161
f 84/114/166 83/113/154 70/109/150 69/84/167
f 2/48/23 95/96/168 92/116/169 10/47/170
s off
f 32/66/171 31/98/172 34/67/173 33/50/174
f 35/68/175 36/99/176 38/69/177 37/53/178
f 40/70/179 39/100/180 42/71/181 41/51/182
f 43/72/183 45/102/184 47/73/185 46/52/186
f 48/74/187 49/103/188 51/75/189 50/54/190
f 52/76/191 53/104/192 55/77/193 54/57/194
f 56/78/195 58/106/196 60/79/197 59/55/198
f 61/80/199 62/107/200 64/81/201 63/56/202
f 66/82/203 65/108/204 68/83/205 67/58/206
f 69/84/207 71/110/208 73/85/209 72/61/210
f 75/86/211 74/111/212 77/87/213 76/59/214
f 78/88/215 79/112/216 81/89/217 80/60/218
f 82/90/219 84/114/220 86/91/221 85/62/222
f 87/92/223 88/115/224 90/93/225 89/65/226
f 91/94/227 92/116/228 94/95/229 93/63/230
f 95/96/231 96/117/232 98/97/233 97/64/234
s 1
f 5/18/5 31/98/144 32/66/6
f 35/68/235 11/39/8 36/99/7
f 29/40/145 39/100/236 40/70/146
f 43/72/148 44/101/147 45/102/152
f 48/74/2 9/41/1 49/103/237
f 52/76/9 1/42/4 53/104/3
f 56/78/151 57/105/153 58/106/157
f 61/80/156 17/46/11 62/107/10
f 30/43/160 65/108/159 66/82/238
f 69/84/167 70/109/150 71/110/149
f 6/44/161 74/111/165 75/86/162
f 78/88/164 12/45/163 79/112/239
f 82/90/158 83/113/154 84/114/166
f 87/92/21 18/49/20 88/115/155
f 91/94/240 10/47/170 92/116/169
f 95/96/168 2/48/23 96/117/22
f 66/82/238 39/100/236 29/40/145 30/43/160
f 71/110/149 43/72/148 39/100/236 66/82/238
f 84/114/166 69/84/167 79/112/239 91/94/240
f 91/94/240 79/112/239 12/45/163 10/47/170
f 82/90/158 58/106/157 57/105/153 83/113/154
f 17/46/11 61/80/156 88/115/155 18/49/20
f 49/103/237 35/68/235 45/102/152 56/78/151
f 49/103/237 9/41/1 11/39/8 35/68/235
