# This file uses centimeters as units for non-parametric coordinates.

mtllib Honden Mand.mtl
g default
v -1.035559 0.280073 -3.243654
v -0.621335 0.280073 -3.243654
v -0.207112 0.280073 -3.243654
v 0.207112 0.280073 -3.243654
v 0.621335 0.280073 -3.243654
v 1.035559 0.280073 -3.243654
v -1.643069 0.316643 -2.636144
v -0.985841 0.316643 -2.636144
v -0.328614 0.316643 -2.636144
v 0.328614 0.316643 -2.636144
v 0.985841 0.316643 -2.636144
v 1.643069 0.316643 -2.636144
v -2.019459 0.418837 -2.259754
v -1.211674 0.418837 -2.259754
v -0.403891 0.418837 -2.259754
v 0.403891 0.418837 -2.259754
v 1.211674 0.418837 -2.259754
v 2.019459 0.418837 -2.259754
v -2.071718 0.497794 -2.207495
v -1.243029 0.497794 -2.207495
v -0.414343 0.497794 -2.207495
v 0.414343 0.497794 -2.207495
v 1.243029 0.497794 -2.207495
v 2.071718 0.497794 -2.207495
v -1.924263 0.682527 -2.354950
v -1.154557 0.682527 -2.354950
v -0.384852 0.682527 -2.354950
v 0.384852 0.682527 -2.354950
v 1.154557 0.682527 -2.354950
v 1.924263 0.682527 -2.354950
v -1.924263 0.682527 -3.124656
v -1.633639 0.673502 -2.645574
v -0.544546 0.673502 -2.645574
v 0.544547 0.673502 -2.645574
v 1.633638 0.673502 -2.645574
v 1.924263 0.682527 -3.124656
v -1.924263 0.682527 -3.894360
v -1.633639 0.673502 -3.734666
v -1.106358 0.438152 -3.172854
v 1.106358 0.438152 -3.172854
v 1.633638 0.673502 -3.734666
v 1.924263 0.682527 -3.894360
v -1.924263 0.682527 -4.664065
v -1.633639 0.673502 -4.823759
v -1.106358 0.438152 -5.385571
v 1.106358 0.438152 -5.385571
v 1.633638 0.673502 -4.823759
v 1.924263 0.682527 -4.664065
v -1.924263 0.682527 -5.433770
v -1.633639 0.673502 -5.912851
v -0.544546 0.673502 -5.912851
v 0.544547 0.673502 -5.912851
v 1.633638 0.673502 -5.912851
v 1.924263 0.682527 -5.433770
v -1.924263 0.682527 -6.203475
v -1.154557 0.682527 -6.203475
v -0.384852 0.682527 -6.203475
v 0.384852 0.682527 -6.203475
v 1.154557 0.682527 -6.203475
v 1.924263 0.682527 -6.203475
v -2.071718 0.497794 -6.350930
v -1.243029 0.497794 -6.350930
v -0.414343 0.497794 -6.350930
v 0.414343 0.497794 -6.350930
v 1.243029 0.497794 -6.350930
v 2.071718 0.497794 -6.350930
v -2.019459 0.418837 -6.298671
v -1.211674 0.418837 -6.298671
v -0.403891 0.418837 -6.298671
v 0.403891 0.418837 -6.298671
v 1.211674 0.418837 -6.298671
v 2.019459 0.418837 -6.298671
v -1.643069 0.316643 -5.922282
v -0.985841 0.316643 -5.922282
v -0.328614 0.316643 -5.922282
v 0.328614 0.316643 -5.922282
v 0.985841 0.316643 -5.922282
v 1.643069 0.316643 -5.922282
v -1.035559 0.280073 -5.314772
v -0.621335 0.280073 -5.314772
v -0.207112 0.280073 -5.314772
v 0.207112 0.280073 -5.314772
v 0.621335 0.280073 -5.314772
v 1.035559 0.280073 -5.314772
v -1.035559 0.280073 -4.900548
v -0.351678 0.290300 -4.630890
v -0.117226 0.290300 -4.630890
v 0.117226 0.290300 -4.630890
v 0.351678 0.290300 -4.630890
v 1.035559 0.280073 -4.900548
v -1.035559 0.280073 -4.486324
v -0.351678 0.290300 -4.396439
v -0.117226 0.290300 -4.396439
v 0.117226 0.290300 -4.396439
v 0.351678 0.290300 -4.396439
v 1.035559 0.280073 -4.486324
v -1.035559 0.280073 -4.072101
v -0.351678 0.290300 -4.161987
v -0.117226 0.290300 -4.161987
v 0.117226 0.290300 -4.161987
v 0.351678 0.290300 -4.161987
v 1.035559 0.280073 -4.072101
v -1.035559 0.280073 -3.657877
v -0.351678 0.290300 -3.927535
v -0.117226 0.290300 -3.927535
v 0.117226 0.290300 -3.927535
v 0.351678 0.290300 -3.927535
v 1.035559 0.280073 -3.657877
v 1.643069 0.316643 -5.265054
v 1.643069 0.316643 -4.607826
v 1.643069 0.316643 -3.950599
v 1.643069 0.316643 -3.293372
v 2.019459 0.418837 -5.490887
v 2.019459 0.418837 -4.683104
v 2.019459 0.418837 -3.875322
v 2.019459 0.418837 -3.067539
v 2.071718 0.497794 -5.522242
v 2.071718 0.497794 -4.693556
v 2.071718 0.497794 -3.864870
v 2.071718 0.497794 -3.036183
v -1.643069 0.316643 -5.265054
v -1.643069 0.316643 -4.607826
v -1.643069 0.316643 -3.950599
v -1.643069 0.316643 -3.293372
v -2.019459 0.418837 -5.490887
v -2.019459 0.418837 -4.683104
v -2.019459 0.418837 -3.875322
v -2.019459 0.418837 -3.067539
v -2.071718 0.497794 -5.522242
v -2.071718 0.497794 -4.693556
v -2.071718 0.497794 -3.864870
v -2.071718 0.497794 -3.036183
v -2.026923 0.618651 -2.252289
v -1.216153 0.678456 -2.330896
v -0.405384 0.678456 -2.330896
v 0.405384 0.678456 -2.330896
v 1.216153 0.678456 -2.330896
v 2.026923 0.618651 -2.252289
v 2.026923 0.618651 -3.063060
v 2.026923 0.618651 -3.873828
v 2.026923 0.618651 -4.684597
v 2.026923 0.618651 -5.495366
v 2.026923 0.618651 -6.306136
v 1.216153 0.618651 -6.306136
v 0.405384 0.618651 -6.306136
v -0.405384 0.618651 -6.306136
v -1.216153 0.618651 -6.306136
v -2.026923 0.618651 -6.306136
v -2.026923 0.618651 -5.495366
v -2.026923 0.618651 -4.684597
v -2.026923 0.618651 -3.873828
v -2.026923 0.618651 -3.063060
v -0.000000 0.400714 -5.385571
v -1.106358 0.400714 -4.279213
v -0.000000 0.400714 -3.172854
v 1.106358 0.400714 -4.279213
v -1.538237 0.555827 -5.206032
v -0.926819 0.555827 -5.817450
v 0.926820 0.555827 -5.817450
v 1.538237 0.555827 -5.206032
v 1.538237 0.555827 -3.352393
v 0.926820 0.555827 -2.740976
v -0.926819 0.555827 -2.740976
v -1.538237 0.555827 -3.352393
vt 0.375000 0.000000
vt 0.425000 0.000000
vt 0.475000 0.000000
vt 0.525000 0.000000
vt 0.575000 0.000000
vt 0.625000 0.000000
vt 0.375000 0.062500
vt 0.425000 0.062500
vt 0.475000 0.062500
vt 0.525000 0.062500
vt 0.575000 0.062500
vt 0.625000 0.062500
vt 0.375000 0.125000
vt 0.425000 0.125000
vt 0.475000 0.125000
vt 0.525000 0.125000
vt 0.575000 0.125000
vt 0.625000 0.125000
vt 0.375000 0.187500
vt 0.425000 0.187500
vt 0.475000 0.187500
vt 0.525000 0.187500
vt 0.575000 0.187500
vt 0.625000 0.187500
vt 0.375000 0.250000
vt 0.425000 0.250000
vt 0.475000 0.250000
vt 0.525000 0.250000
vt 0.575000 0.250000
vt 0.625000 0.250000
vt 0.375000 0.300000
vt 0.425000 0.300000
vt 0.475000 0.300000
vt 0.525000 0.300000
vt 0.575000 0.300000
vt 0.625000 0.300000
vt 0.375000 0.350000
vt 0.425000 0.350000
vt 0.475000 0.350000
vt 0.525000 0.350000
vt 0.575000 0.350000
vt 0.625000 0.350000
vt 0.375000 0.400000
vt 0.425000 0.400000
vt 0.475000 0.400000
vt 0.525000 0.400000
vt 0.575000 0.400000
vt 0.625000 0.400000
vt 0.375000 0.450000
vt 0.425000 0.450000
vt 0.475000 0.450000
vt 0.525000 0.450000
vt 0.575000 0.450000
vt 0.625000 0.450000
vt 0.375000 0.500000
vt 0.425000 0.500000
vt 0.475000 0.500000
vt 0.525000 0.500000
vt 0.575000 0.500000
vt 0.625000 0.500000
vt 0.375000 0.562500
vt 0.425000 0.562500
vt 0.475000 0.562500
vt 0.525000 0.562500
vt 0.575000 0.562500
vt 0.625000 0.562500
vt 0.375000 0.625000
vt 0.425000 0.625000
vt 0.475000 0.625000
vt 0.525000 0.625000
vt 0.575000 0.625000
vt 0.625000 0.625000
vt 0.375000 0.687500
vt 0.425000 0.687500
vt 0.475000 0.687500
vt 0.525000 0.687500
vt 0.575000 0.687500
vt 0.625000 0.687500
vt 0.375000 0.750000
vt 0.425000 0.750000
vt 0.475000 0.750000
vt 0.525000 0.750000
vt 0.575000 0.750000
vt 0.625000 0.750000
vt 0.375000 0.800000
vt 0.425000 0.800000
vt 0.475000 0.800000
vt 0.525000 0.800000
vt 0.575000 0.800000
vt 0.625000 0.800000
vt 0.375000 0.850000
vt 0.425000 0.850000
vt 0.475000 0.850000
vt 0.525000 0.850000
vt 0.575000 0.850000
vt 0.625000 0.850000
vt 0.375000 0.900000
vt 0.425000 0.900000
vt 0.475000 0.900000
vt 0.525000 0.900000
vt 0.575000 0.900000
vt 0.625000 0.900000
vt 0.375000 0.950000
vt 0.425000 0.950000
vt 0.475000 0.950000
vt 0.525000 0.950000
vt 0.575000 0.950000
vt 0.625000 0.950000
vt 0.375000 1.000000
vt 0.425000 1.000000
vt 0.475000 1.000000
vt 0.525000 1.000000
vt 0.575000 1.000000
vt 0.625000 1.000000
vt 0.875000 0.000000
vt 0.825000 0.000000
vt 0.775000 0.000000
vt 0.725000 0.000000
vt 0.675000 0.000000
vt 0.875000 0.062500
vt 0.825000 0.062500
vt 0.775000 0.062500
vt 0.725000 0.062500
vt 0.675000 0.062500
vt 0.875000 0.125000
vt 0.825000 0.125000
vt 0.775000 0.125000
vt 0.725000 0.125000
vt 0.675000 0.125000
vt 0.875000 0.187500
vt 0.825000 0.187500
vt 0.775000 0.187500
vt 0.725000 0.187500
vt 0.675000 0.187500
vt 0.875000 0.250000
vt 0.825000 0.250000
vt 0.775000 0.250000
vt 0.725000 0.250000
vt 0.675000 0.250000
vt 0.125000 0.000000
vt 0.175000 0.000000
vt 0.225000 0.000000
vt 0.275000 0.000000
vt 0.325000 0.000000
vt 0.125000 0.062500
vt 0.175000 0.062500
vt 0.225000 0.062500
vt 0.275000 0.062500
vt 0.325000 0.062500
vt 0.125000 0.125000
vt 0.175000 0.125000
vt 0.225000 0.125000
vt 0.275000 0.125000
vt 0.325000 0.125000
vt 0.125000 0.187500
vt 0.175000 0.187500
vt 0.225000 0.187500
vt 0.275000 0.187500
vt 0.325000 0.187500
vt 0.125000 0.250000
vt 0.175000 0.250000
vt 0.225000 0.250000
vt 0.275000 0.250000
vt 0.325000 0.250000
vt 0.375000 0.228389
vt 0.425000 0.228389
vt 0.475000 0.228389
vt 0.525000 0.228389
vt 0.575000 0.228389
vt 0.625000 0.228389
vt 0.675000 0.228389
vt 0.725000 0.228389
vt 0.775000 0.228389
vt 0.825000 0.228389
vt 0.625000 0.521611
vt 0.875000 0.228389
vt 0.575000 0.521611
vt 0.525000 0.521611
vt 0.475000 0.521611
vt 0.425000 0.521611
vt 0.125000 0.228389
vt 0.375000 0.521611
vt 0.175000 0.228389
vt 0.225000 0.228389
vt 0.275000 0.228389
vt 0.325000 0.228389
vt 0.500000 0.400000
vt 0.475000 0.375000
vt 0.500000 0.350000
vt 0.525000 0.375000
vt 0.450000 0.400000
vt 0.475000 0.425000
vt 0.525000 0.425000
vt 0.550000 0.400000
vt 0.550000 0.350000
vt 0.525000 0.325000
vt 0.475000 0.325000
vt 0.450000 0.350000
vn 0.000000 -0.998193 0.060088
vn 0.000000 -0.998193 0.060088
vn 0.000000 -0.987882 0.155206
vn 0.000000 -0.978364 0.206892
vn 0.000000 -0.998193 0.060088
vn 0.000000 -0.987882 0.155206
vn 0.000000 -0.998193 0.060088
vn 0.000000 -0.987882 0.155206
vn 0.000000 -0.998193 0.060088
vn 0.000000 -0.987882 0.155206
vn 0.000000 -0.998193 0.060088
vn 0.000000 -0.978364 0.206892
vn 0.000000 -0.916016 0.401141
vn 0.000000 -0.847594 0.530644
vn 0.000000 -0.916016 0.401141
vn 0.000000 -0.916016 0.401141
vn 0.000000 -0.916016 0.401141
vn 0.000000 -0.847594 0.530644
vn 0.009056 0.198434 0.980072
vn 0.018855 0.169403 0.985366
vn 0.000000 0.264747 0.964318
vn 0.000000 0.264747 0.964318
vn -0.009056 0.198434 0.980072
vn -0.018855 0.169404 0.985366
vn 0.020444 0.542264 0.839960
vn 0.004671 0.638658 0.769476
vn -0.002909 0.968367 0.249512
vn -0.010590 0.886899 0.461842
vn 0.000000 0.621899 0.783098
vn 0.000000 0.985981 0.166859
vn 0.000000 0.621899 0.783098
vn 0.000000 0.985981 0.166859
vn -0.004671 0.638658 0.769476
vn 0.002909 0.968367 0.249512
vn -0.020445 0.542264 0.839960
vn 0.010590 0.886899 0.461841
vn 0.015522 0.999759 -0.015522
vn 0.002300 0.999584 -0.028738
vn 0.117237 0.986160 -0.117237
vn 0.028738 0.999584 -0.002300
vn 0.000000 0.999518 -0.031036
vn 0.025637 0.929247 -0.368568
vn 0.000000 0.999518 -0.031036
vn -0.025637 0.929247 -0.368568
vn -0.002300 0.999584 -0.028738
vn -0.117237 0.986160 -0.117237
vn -0.015522 0.999759 -0.015522
vn -0.028738 0.999584 -0.002300
vn 0.368568 0.929247 -0.025637
vn 0.031036 0.999518 0.000000
vn 0.095050 0.945696 -0.310844
vn 0.310844 0.945696 -0.095050
vn -0.095050 0.945696 -0.310844
vn -0.368568 0.929247 -0.025637
vn -0.310844 0.945696 -0.095050
vn -0.031036 0.999518 0.000000
vn 0.368568 0.929247 0.025637
vn 0.031036 0.999518 0.000000
vn 0.310844 0.945696 0.095050
vn 0.118433 0.992962 0.000000
vn 0.000000 0.992962 -0.118433
vn -0.118433 0.992962 0.000000
vn 0.000000 0.992962 0.118433
vn -0.310844 0.945696 0.095050
vn -0.368568 0.929247 0.025637
vn -0.031036 0.999518 0.000000
vn 0.117237 0.986160 0.117237
vn 0.028738 0.999584 0.002300
vn 0.095050 0.945696 0.310844
vn 0.025637 0.929247 0.368568
vn -0.095050 0.945696 0.310844
vn -0.025637 0.929247 0.368568
vn -0.117237 0.986160 0.117237
vn -0.028738 0.999584 0.002300
vn 0.002300 0.999584 0.028738
vn 0.015522 0.999759 0.015522
vn 0.000000 0.999518 0.031036
vn 0.000000 0.999518 0.031036
vn -0.002300 0.999584 0.028738
vn -0.015522 0.999759 0.015522
vn 0.000000 0.849065 -0.528289
vn 0.000000 0.849065 -0.528289
vn 0.000000 0.618939 -0.785439
vn 0.000000 0.516599 -0.856227
vn 0.000000 0.849065 -0.528289
vn 0.000000 0.618939 -0.785439
vn 0.000000 0.849065 -0.528289
vn 0.000000 0.618939 -0.785439
vn 0.000000 0.849065 -0.528289
vn 0.000000 0.618939 -0.785439
vn 0.000000 0.849064 -0.528289
vn 0.000000 0.516599 -0.856227
vn 0.000000 -0.001077 -0.999999
vn 0.000000 -0.036884 -0.999320
vn 0.000000 -0.916016 -0.401141
vn 0.000000 -0.847594 -0.530645
vn 0.000000 -0.036883 -0.999320
vn 0.000000 -0.916016 -0.401141
vn 0.000000 -0.036883 -0.999320
vn 0.000000 -0.916016 -0.401141
vn 0.000000 -0.036884 -0.999320
vn 0.000000 -0.916016 -0.401141
vn 0.000000 -0.001077 -0.999999
vn 0.000000 -0.847594 -0.530645
vn 0.000000 -0.987882 -0.155206
vn 0.000000 -0.978364 -0.206892
vn 0.000000 -0.987882 -0.155206
vn 0.000000 -0.987882 -0.155206
vn 0.000000 -0.987882 -0.155206
vn 0.000000 -0.978364 -0.206892
vn 0.000000 -0.998193 -0.060088
vn 0.000000 -0.998193 -0.060088
vn 0.000000 -0.998193 -0.060088
vn 0.000000 -0.998193 -0.060088
vn 0.000000 -0.998193 -0.060088
vn 0.000000 -0.998193 -0.060088
vn 0.007477 -0.999944 0.007477
vn 0.005049 -0.999938 0.009905
vn 0.006931 -0.999952 0.006931
vn 0.009905 -0.999938 0.005049
vn 0.000000 -0.999888 0.014953
vn 0.000000 -0.999928 0.011984
vn 0.000000 -0.999888 0.014953
vn 0.000000 -0.999928 0.011984
vn -0.005049 -0.999938 0.009905
vn -0.006931 -0.999952 0.006931
vn -0.007477 -0.999944 0.007477
vn -0.009905 -0.999938 0.005049
vn 0.011984 -0.999928 0.000000
vn 0.014953 -0.999888 0.000000
vn 0.000000 -1.000000 0.000000
vn 0.000000 -1.000000 0.000000
vn -0.011984 -0.999928 0.000000
vn -0.014953 -0.999888 0.000000
vn 0.011984 -0.999928 0.000000
vn 0.014953 -0.999888 0.000000
vn 0.000000 -1.000000 0.000000
vn 0.000000 -1.000000 0.000000
vn -0.011984 -0.999928 0.000000
vn -0.014953 -0.999888 0.000000
vn 0.006931 -0.999952 -0.006931
vn 0.009905 -0.999938 -0.005049
vn 0.000000 -0.999928 -0.011984
vn 0.000000 -0.999928 -0.011984
vn -0.006931 -0.999952 -0.006931
vn -0.009905 -0.999938 -0.005049
vn 0.005049 -0.999938 -0.009905
vn 0.007477 -0.999944 -0.007477
vn 0.000000 -0.999888 -0.014953
vn 0.000000 -0.999888 -0.014953
vn -0.005049 -0.999938 -0.009905
vn -0.007477 -0.999944 -0.007477
vn 0.060088 -0.998193 0.000000
vn 0.060088 -0.998193 0.000000
vn 0.206892 -0.978364 0.000000
vn 0.155206 -0.987882 0.000000
vn 0.060088 -0.998193 0.000000
vn 0.155206 -0.987882 0.000000
vn 0.060088 -0.998193 0.000000
vn 0.155206 -0.987882 0.000000
vn 0.060088 -0.998193 0.000000
vn 0.155206 -0.987882 0.000000
vn 0.060088 -0.998193 0.000000
vn 0.206892 -0.978364 0.000000
vn 0.530645 -0.847594 0.000000
vn 0.401141 -0.916016 0.000000
vn 0.401141 -0.916016 0.000000
vn 0.401141 -0.916016 0.000000
vn 0.401141 -0.916016 0.000000
vn 0.530645 -0.847594 0.000000
vn 0.999999 -0.001075 0.000000
vn 0.999320 -0.036882 0.000000
vn 0.999320 -0.036883 0.000000
vn 0.999320 -0.036883 0.000000
vn 0.999320 -0.036883 0.000000
vn 0.999999 -0.001076 0.000000
vn 0.785439 0.618939 0.000000
vn 0.856227 0.516600 0.000000
vn 0.528290 0.849064 0.000000
vn 0.528290 0.849064 0.000000
vn 0.785439 0.618939 0.000000
vn 0.528290 0.849064 0.000000
vn 0.785439 0.618939 0.000000
vn 0.528290 0.849064 0.000000
vn 0.785439 0.618939 0.000000
vn 0.528289 0.849065 0.000000
vn 0.856227 0.516600 0.000000
vn 0.528289 0.849065 0.000000
vn -0.060088 -0.998193 0.000000
vn -0.060088 -0.998193 0.000000
vn -0.155206 -0.987882 0.000000
vn -0.206892 -0.978364 0.000000
vn -0.060088 -0.998193 0.000000
vn -0.155206 -0.987882 0.000000
vn -0.060088 -0.998193 0.000000
vn -0.155206 -0.987882 0.000000
vn -0.060088 -0.998193 0.000000
vn -0.155206 -0.987882 0.000000
vn -0.060088 -0.998193 0.000000
vn -0.206892 -0.978364 0.000000
vn -0.401141 -0.916016 0.000000
vn -0.530645 -0.847594 0.000000
vn -0.401141 -0.916016 0.000000
vn -0.401141 -0.916016 0.000000
vn -0.401141 -0.916016 0.000000
vn -0.530645 -0.847594 0.000000
vn -0.999320 -0.036882 0.000000
vn -0.999999 -0.001075 0.000000
vn -0.999320 -0.036882 0.000000
vn -0.999320 -0.036882 0.000000
vn -0.999320 -0.036883 0.000000
vn -0.999999 -0.001076 0.000000
vn -0.856227 0.516600 0.000000
vn -0.785439 0.618939 0.000000
vn -0.528289 0.849064 0.000000
vn -0.528289 0.849064 0.000000
vn -0.785439 0.618939 0.000000
vn -0.528290 0.849064 0.000000
vn -0.785439 0.618939 0.000000
vn -0.528290 0.849064 0.000000
vn -0.785439 0.618939 0.000000
vn -0.528289 0.849064 0.000000
vn -0.856227 0.516599 0.000000
vn -0.528289 0.849065 0.000000
vn 0.136081 0.981307 0.136081
vn 0.136081 0.981307 -0.136081
vn -0.136081 0.981307 -0.136081
vn -0.136081 0.981307 0.136081
s 1
g pCube17
usemtl initialShadingGroup
f 1/1/1 2/2/2 8/8/3 7/7/4
f 2/2/2 3/3/5 9/9/6 8/8/3
f 3/3/5 4/4/7 10/10/8 9/9/6
f 4/4/7 5/5/9 11/11/10 10/10/8
f 5/5/9 6/6/11 12/12/12 11/11/10
f 7/7/4 8/8/3 14/14/13 13/13/14
f 8/8/3 9/9/6 15/15/15 14/14/13
f 9/9/6 10/10/8 16/16/16 15/15/15
f 10/10/8 11/11/10 17/17/17 16/16/16
f 11/11/10 12/12/12 18/18/18 17/17/17
f 13/13/14 14/14/13 20/20/19 19/19/20
f 14/14/13 15/15/15 21/21/21 20/20/19
f 15/15/15 16/16/16 22/22/22 21/21/21
f 16/16/16 17/17/17 23/23/23 22/22/22
f 17/17/17 18/18/18 24/24/24 23/23/23
f 133/165/25 134/166/26 26/26/27 25/25/28
f 134/166/26 135/167/29 27/27/30 26/26/27
f 135/167/29 136/168/31 28/28/32 27/27/30
f 136/168/31 137/169/33 29/29/34 28/28/32
f 137/169/33 138/170/35 30/30/36 29/29/34
s 2
f 25/25/37 26/26/38 32/32/39 31/31/40
f 26/26/38 27/27/41 33/33/42 32/32/39
f 27/27/41 28/28/43 34/34/44 33/33/42
f 28/28/43 29/29/45 35/35/46 34/34/44
f 29/29/45 30/30/47 36/36/48 35/35/46
f 31/31/40 32/32/39 38/38/49 37/37/50
f 32/32/39 33/33/42 163/197/51 164/198/52 38/38/49
f 33/33/42 34/34/44 162/196/53 163/197/51
f 34/34/44 35/35/46 41/41/54 161/195/55 162/196/53
f 35/35/46 36/36/48 42/42/56 41/41/54
f 37/37/50 38/38/49 44/44/57 43/43/58
f 38/38/49 164/198/52 157/191/59 44/44/57
f 154/188/60 155/189/61 156/190/62 153/187/63
f 160/194/64 161/195/55 41/41/54 47/47/65
f 41/41/54 42/42/56 48/48/66 47/47/65
f 43/43/58 44/44/57 50/50/67 49/49/68
f 44/44/57 157/191/59 158/192/69 51/51/70 50/50/67
f 158/192/69 159/193/71 52/52/72 51/51/70
f 159/193/71 160/194/64 47/47/65 53/53/73 52/52/72
f 47/47/65 48/48/66 54/54/74 53/53/73
f 49/49/68 50/50/67 56/56/75 55/55/76
f 50/50/67 51/51/70 57/57/77 56/56/75
f 51/51/70 52/52/72 58/58/78 57/57/77
f 52/52/72 53/53/73 59/59/79 58/58/78
f 53/53/73 54/54/74 60/60/80 59/59/79
s 4
f 55/55/81 56/56/82 147/180/83 148/182/84
f 56/56/82 57/57/85 146/179/86 147/180/83
f 57/57/85 58/58/87 145/178/88 146/179/86
f 58/58/87 59/59/89 144/177/90 145/178/88
f 59/59/89 60/60/91 143/175/92 144/177/90
f 61/61/93 62/62/94 68/68/95 67/67/96
f 62/62/94 63/63/97 69/69/98 68/68/95
f 63/63/97 64/64/99 70/70/100 69/69/98
f 64/64/99 65/65/101 71/71/102 70/70/100
f 65/65/101 66/66/103 72/72/104 71/71/102
f 67/67/96 68/68/95 74/74/105 73/73/106
f 68/68/95 69/69/98 75/75/107 74/74/105
f 69/69/98 70/70/100 76/76/108 75/75/107
f 70/70/100 71/71/102 77/77/109 76/76/108
f 71/71/102 72/72/104 78/78/110 77/77/109
f 73/73/106 74/74/105 80/80/111 79/79/112
f 74/74/105 75/75/107 81/81/113 80/80/111
f 75/75/107 76/76/108 82/82/114 81/81/113
f 76/76/108 77/77/109 83/83/115 82/82/114
f 77/77/109 78/78/110 84/84/116 83/83/115
s 5
f 79/79/117 80/80/118 86/86/119 85/85/120
f 80/80/118 81/81/121 87/87/122 86/86/119
f 81/81/121 82/82/123 88/88/124 87/87/122
f 82/82/123 83/83/125 89/89/126 88/88/124
f 83/83/125 84/84/127 90/90/128 89/89/126
f 85/85/120 86/86/119 92/92/129 91/91/130
f 86/86/119 87/87/122 93/93/131 92/92/129
f 87/87/122 88/88/124 94/94/132 93/93/131
f 88/88/124 89/89/126 95/95/133 94/94/132
f 89/89/126 90/90/128 96/96/134 95/95/133
f 91/91/130 92/92/129 98/98/135 97/97/136
f 92/92/129 93/93/131 99/99/137 98/98/135
f 93/93/131 94/94/132 100/100/138 99/99/137
f 94/94/132 95/95/133 101/101/139 100/100/138
f 95/95/133 96/96/134 102/102/140 101/101/139
f 97/97/136 98/98/135 104/104/141 103/103/142
f 98/98/135 99/99/137 105/105/143 104/104/141
f 99/99/137 100/100/138 106/106/144 105/105/143
f 100/100/138 101/101/139 107/107/145 106/106/144
f 101/101/139 102/102/140 108/108/146 107/107/145
f 103/103/142 104/104/141 2/110/147 1/109/148
f 104/104/141 105/105/143 3/111/149 2/110/147
f 105/105/143 106/106/144 4/112/150 3/111/149
f 106/106/144 107/107/145 5/113/151 4/112/150
f 107/107/145 108/108/146 6/114/152 5/113/151
s 6
f 90/116/153 84/115/154 78/120/155 109/121/156
f 96/117/157 90/116/153 109/121/156 110/122/158
f 102/118/159 96/117/157 110/122/158 111/123/160
f 108/119/161 102/118/159 111/123/160 112/124/162
f 6/6/163 108/119/161 112/124/162 12/12/164
f 109/121/156 78/120/155 72/125/165 113/126/166
f 110/122/158 109/121/156 113/126/166 114/127/167
f 111/123/160 110/122/158 114/127/167 115/128/168
f 112/124/162 111/123/160 115/128/168 116/129/169
f 12/12/164 112/124/162 116/129/169 18/18/170
f 113/126/166 72/125/165 66/130/171 117/131/172
f 114/127/167 113/126/166 117/131/172 118/132/173
f 115/128/168 114/127/167 118/132/173 119/133/174
f 116/129/169 115/128/168 119/133/174 120/134/175
f 18/18/170 116/129/169 120/134/175 24/24/176
f 142/174/177 143/176/178 60/135/179 54/136/180
f 141/173/181 142/174/177 54/136/180 48/137/182
f 140/172/183 141/173/181 48/137/182 42/138/184
f 139/171/185 140/172/183 42/138/184 36/139/186
f 138/170/187 139/171/185 36/139/186 30/30/188
s 7
f 79/140/189 85/141/190 121/146/191 73/145/192
f 85/141/190 91/142/193 122/147/194 121/146/191
f 91/142/193 97/143/195 123/148/196 122/147/194
f 97/143/195 103/144/197 124/149/198 123/148/196
f 103/144/197 1/1/199 7/7/200 124/149/198
f 73/145/192 121/146/191 125/151/201 67/150/202
f 121/146/191 122/147/194 126/152/203 125/151/201
f 122/147/194 123/148/196 127/153/204 126/152/203
f 123/148/196 124/149/198 128/154/205 127/153/204
f 124/149/198 7/7/200 13/13/206 128/154/205
f 67/150/202 125/151/201 129/156/207 61/155/208
f 125/151/201 126/152/203 130/157/209 129/156/207
f 126/152/203 127/153/204 131/158/210 130/157/209
f 127/153/204 128/154/205 132/159/211 131/158/210
f 128/154/205 13/13/206 19/19/212 132/159/211
f 148/181/213 149/183/214 49/161/215 55/160/216
f 149/183/214 150/184/217 43/162/218 49/161/215
f 150/184/217 151/185/219 37/163/220 43/162/218
f 151/185/219 152/186/221 31/164/222 37/163/220
f 152/186/221 133/165/223 25/25/224 31/164/222
s 1
f 19/19/20 20/20/19 134/166/26 133/165/25
f 20/20/19 21/21/21 135/167/29 134/166/26
f 21/21/21 22/22/22 136/168/31 135/167/29
f 22/22/22 23/23/23 137/169/33 136/168/31
f 23/23/23 24/24/24 138/170/35 137/169/33
s 6
f 24/24/176 120/134/175 139/171/185 138/170/187
f 120/134/175 119/133/174 140/172/183 139/171/185
f 119/133/174 118/132/173 141/173/181 140/172/183
f 118/132/173 117/131/172 142/174/177 141/173/181
f 117/131/172 66/130/171 143/176/178 142/174/177
s 4
f 144/177/90 143/175/92 66/66/103 65/65/101
f 145/178/88 144/177/90 65/65/101 64/64/99
f 146/179/86 145/178/88 64/64/99 63/63/97
f 147/180/83 146/179/86 63/63/97 62/62/94
f 148/182/84 147/180/83 62/62/94 61/61/93
s 7
f 61/155/208 129/156/207 149/183/214 148/181/213
f 129/156/207 130/157/209 150/184/217 149/183/214
f 130/157/209 131/158/210 151/185/219 150/184/217
f 131/158/210 132/159/211 152/186/221 151/185/219
f 132/159/211 19/19/212 133/165/223 152/186/221
s 2
f 154/188/60 153/187/63 45/45/225
f 39/39/226 155/189/61 154/188/60
f 156/190/62 155/189/61 40/40/227
f 153/187/63 156/190/62 46/46/228
f 158/192/69 157/191/59 45/45/225
f 45/45/225 153/187/63 46/46/228 159/193/71 158/192/69
f 46/46/228 160/194/64 159/193/71
f 40/40/227 161/195/55 160/194/64 46/46/228 156/190/62
f 162/196/53 161/195/55 40/40/227
f 163/197/51 162/196/53 40/40/227 155/189/61 39/39/226
f 164/198/52 163/197/51 39/39/226
f 157/191/59 164/198/52 39/39/226 154/188/60 45/45/225
