# This file uses centimeters as units for non-parametric coordinates.

mtllib Kacheltje.mtl
g default
v -1.474999 0.399824 0.946103
v 1.901247 0.399824 0.946103
v -1.474999 0.627552 0.946103
v 1.901247 0.627552 0.946103
v -1.474999 0.627552 -0.290457
v 1.901247 0.627552 -0.290457
v -1.474999 0.399824 -0.290457
v 1.901247 0.399824 -0.290457
v -1.854813 0.172139 1.941745
v 2.281060 0.172139 1.941745
v -1.854813 0.399867 1.941745
v 2.281060 0.399867 1.941745
v -1.854813 0.399867 -0.286748
v 2.281060 0.399867 -0.286748
v -1.854813 0.172139 -0.286748
v 2.281060 0.172139 -0.286748
v -1.597201 3.656437 0.069408
v 2.031224 3.656437 0.069408
v -1.597201 3.714026 0.069408
v 2.031224 3.714026 0.069408
v -1.597201 3.714026 -0.288135
v 2.031224 3.714026 -0.288135
v -1.597201 3.656437 -0.288135
v 2.031224 3.656437 -0.288135
v -1.597201 4.022141 0.069408
v 2.031224 4.022141 0.069408
v -1.597201 4.079730 0.069408
v 2.031224 4.079730 0.069408
v -1.597201 4.079730 -0.288135
v 2.031224 4.079730 -0.288135
v -1.597201 4.022141 -0.288135
v 2.031224 4.022141 -0.288135
v -1.417288 3.745775 -0.290302
v 1.843536 3.745775 -0.290302
v -1.417288 0.637025 -0.290302
v 1.843536 0.637025 -0.290302
v -1.417288 0.637025 -0.111513
v 1.843536 0.637025 -0.111513
v -1.417288 3.745775 -0.111513
v 1.843536 3.745775 -0.111513
v -1.134286 0.869692 -0.109026
v -0.494774 0.866015 -0.109026
v 0.927845 0.871188 -0.109026
v 1.560534 0.863146 -0.109026
v -1.134286 3.490920 -0.109026
v -0.503587 2.661575 -0.104800
v 0.928467 2.645092 -0.104800
v 1.560535 3.490920 -0.109026
v -0.499201 0.637025 -0.111513
v 0.929663 0.637025 -0.111513
v -1.132582 0.637025 -0.111513
v 1.558944 0.637025 -0.111513
v -0.425041 0.399824 1.653523
v 0.851289 0.399824 1.653523
v -0.425041 0.627552 1.653523
v 0.851289 0.627552 1.653523
v -0.910666 0.627552 0.934743
v 1.336914 0.627552 0.934743
v -0.910666 0.399824 0.934743
v 1.336914 0.399824 0.934743
v -1.557840 3.716055 0.069408
v 1.991863 3.716055 0.069408
v -1.557840 4.073597 0.069408
v 1.991863 4.073597 0.069408
v -1.557840 4.073597 -0.288135
v 1.991863 4.073597 -0.288135
v -1.557840 3.716055 -0.288135
v 1.991863 3.716055 -0.288135
v -1.556885 3.597754 0.069408
v 1.990908 3.597754 0.069408
v -1.556885 3.655343 0.069408
v 1.990908 3.655343 0.069408
v -1.556885 3.655343 -0.288135
v 1.990908 3.655343 -0.288135
v -1.556885 3.597754 -0.288135
v 1.990908 3.597754 -0.288135
v -1.637435 4.080129 0.069408
v 2.071458 4.080129 0.069408
v -1.637435 4.137717 0.069408
v 2.071458 4.137717 0.069408
v -1.637435 4.137717 -0.288135
v 2.071458 4.137717 -0.288135
v -1.637435 4.080129 -0.288135
v 2.071458 4.080129 -0.288135
v -1.411674 0.591284 -0.016333
v -1.054132 0.591284 -0.016333
v -1.411674 3.584051 -0.016333
v -1.054132 3.584051 -0.016333
v -1.411674 3.584051 -0.116108
v -1.054132 3.584051 -0.116108
v -1.411674 0.591284 -0.116108
v -1.054132 0.591284 -0.116108
v -1.411674 2.784266 -0.016333
v -1.054132 2.777104 -0.016333
v -1.411674 2.784266 0.000000
v -1.054132 2.777104 0.000000
v -1.054132 3.584051 0.062383
v -1.411674 3.584051 0.062383
v -1.054132 3.163692 -0.116108
v -1.411674 3.163692 -0.116108
v -1.054132 3.245957 -0.016333
v -1.054132 3.245957 0.093254
v -1.411674 3.245957 0.093254
v -1.411674 3.245957 -0.016333
v -1.497755 3.545591 0.069408
v 1.931779 3.545591 0.069408
v -1.497755 3.603180 0.069408
v 1.931779 3.603180 0.069408
v -1.497755 3.603180 -0.288135
v 1.931779 3.603180 -0.288135
v -1.497755 3.545591 -0.288135
v 1.931779 3.545591 -0.288135
v 1.481895 0.591284 -0.016333
v 1.839438 0.591284 -0.016333
v 1.481895 3.584051 -0.016333
v 1.839438 3.584051 -0.016333
v 1.481895 3.584051 -0.116108
v 1.839438 3.584051 -0.116108
v 1.481895 0.591284 -0.116108
v 1.839438 0.591284 -0.116108
v 1.481895 2.784266 -0.016333
v 1.839438 2.777104 -0.016333
v 1.481895 2.784266 0.000000
v 1.839438 2.777104 0.000000
v 1.839438 3.584051 0.062383
v 1.481895 3.584051 0.062383
v 1.839438 3.163692 -0.116108
v 1.481895 3.163692 -0.116108
v 1.839438 3.245957 -0.016333
v 1.839438 3.245957 0.093254
v 1.481895 3.245957 0.093254
v 1.481895 3.245957 -0.016333
vt 0.375000 0.000000
vt 0.625000 0.000000
vt 0.375000 0.250000
vt 0.625000 0.250000
vt 0.375000 0.500000
vt 0.625000 0.500000
vt 0.875000 0.000000
vt 0.875000 0.250000
vt 0.125000 0.000000
vt 0.125000 0.250000
vt 0.375000 0.000000
vt 0.625000 0.000000
vt 0.625000 0.250000
vt 0.375000 0.250000
vt 0.625000 0.500000
vt 0.375000 0.500000
vt 0.875000 0.000000
vt 0.875000 0.250000
vt 0.125000 0.000000
vt 0.125000 0.250000
vt 0.375000 0.000000
vt 0.625000 0.000000
vt 0.625000 0.250000
vt 0.375000 0.250000
vt 0.625000 0.500000
vt 0.375000 0.500000
vt 0.375000 0.750000
vt 0.625000 0.750000
vt 0.625000 1.000000
vt 0.375000 1.000000
vt 0.875000 0.000000
vt 0.875000 0.250000
vt 0.125000 0.000000
vt 0.125000 0.250000
vt 0.375000 0.000000
vt 0.625000 0.000000
vt 0.625000 0.250000
vt 0.375000 0.250000
vt 0.375000 0.750000
vt 0.625000 0.750000
vt 0.625000 1.000000
vt 0.375000 1.000000
vt 0.875000 0.000000
vt 0.875000 0.250000
vt 0.125000 0.000000
vt 0.125000 0.250000
vt 0.375000 0.374987
vt 0.625000 0.374987
vt 0.625000 0.500000
vt 0.375000 0.500000
vt 0.375000 0.750000
vt 0.625000 0.750000
vt 0.625000 0.875013
vt 0.603842 0.875013
vt 0.546210 0.875013
vt 0.452527 0.875012
vt 0.397402 0.875013
vt 0.375000 0.875013
vt 0.749986 0.000000
vt 0.875000 0.000000
vt 0.875000 0.250000
vt 0.749987 0.250000
vt 0.125000 0.000000
vt 0.250014 0.000000
vt 0.250013 0.250000
vt 0.125000 0.250000
vt 0.303547 0.005325
vt 0.415122 0.021091
vt 0.441432 0.180318
vt 0.382114 0.322683
vt 0.568359 0.016817
vt 0.695893 0.005325
vt 0.696454 0.244675
vt 0.558568 0.180318
vt 0.707672 0.000000
vt 0.294816 0.000000
vt 0.405058 0.000000
vt 0.420950 0.005325
vt 0.592415 0.000000
vt 0.573762 0.005325
vt 0.375000 0.000000
vt 0.625000 0.000000
vt 0.625000 0.250000
vt 0.375000 0.250000
vt 0.625000 0.500000
vt 0.375000 0.500000
vt 0.625000 0.750000
vt 0.375000 0.750000
vt 0.875000 0.000000
vt 0.875000 0.250000
vt 0.125000 0.000000
vt 0.125000 0.250000
vt 0.375000 0.000000
vt 0.625000 0.000000
vt 0.625000 0.250000
vt 0.375000 0.250000
vt 0.375000 0.750000
vt 0.625000 0.750000
vt 0.625000 1.000000
vt 0.375000 1.000000
vt 0.875000 0.000000
vt 0.875000 0.250000
vt 0.125000 0.000000
vt 0.125000 0.250000
vt 0.375000 0.000000
vt 0.625000 0.000000
vt 0.625000 0.250000
vt 0.375000 0.250000
vt 0.625000 0.500000
vt 0.375000 0.500000
vt 0.375000 0.750000
vt 0.625000 0.750000
vt 0.625000 1.000000
vt 0.375000 1.000000
vt 0.875000 0.000000
vt 0.875000 0.250000
vt 0.125000 0.000000
vt 0.125000 0.250000
vt 0.375000 0.000000
vt 0.625000 0.000000
vt 0.625000 0.250000
vt 0.375000 0.250000
vt 0.625000 0.500000
vt 0.375000 0.500000
vt 0.375000 0.750000
vt 0.625000 0.750000
vt 0.625000 1.000000
vt 0.375000 1.000000
vt 0.875000 0.000000
vt 0.875000 0.250000
vt 0.125000 0.000000
vt 0.125000 0.250000
vt 0.375000 0.183190
vt 0.625000 0.181595
vt 0.625000 0.221340
vt 0.375000 0.221758
vt 0.625000 0.000000
vt 0.875000 0.000000
vt 0.875000 0.214885
vt 0.875000 0.250000
vt 0.625000 0.250000
vt 0.625000 0.221340
vt 0.625000 0.181595
vt 0.125000 0.000000
vt 0.375000 0.000000
vt 0.375000 0.183190
vt 0.375000 0.221758
vt 0.375000 0.250000
vt 0.125000 0.250000
vt 0.125000 0.214885
vt 0.625000 0.250000
vt 0.375000 0.250000
vt 0.375000 0.000000
vt 0.625000 0.000000
vt 0.625000 0.250000
vt 0.375000 0.250000
vt 0.375000 0.750000
vt 0.625000 0.750000
vt 0.625000 1.000000
vt 0.375000 1.000000
vt 0.875000 0.000000
vt 0.875000 0.250000
vt 0.125000 0.000000
vt 0.125000 0.250000
vt 0.375000 0.183190
vt 0.625000 0.181595
vt 0.625000 0.221340
vt 0.375000 0.221758
vt 0.625000 0.000000
vt 0.875000 0.000000
vt 0.875000 0.214885
vt 0.875000 0.250000
vt 0.625000 0.250000
vt 0.625000 0.221340
vt 0.625000 0.181595
vt 0.125000 0.000000
vt 0.375000 0.000000
vt 0.375000 0.183190
vt 0.375000 0.221758
vt 0.375000 0.250000
vt 0.125000 0.250000
vt 0.125000 0.214885
vt 0.625000 0.250000
vt 0.375000 0.250000
vn 0.000000 0.000000 1.000000
vn 0.000000 0.000000 1.000000
vn 0.000000 0.000000 1.000000
vn 0.000000 0.000000 1.000000
vn 0.000000 1.000000 0.000000
vn 0.000000 1.000000 0.000000
vn 0.000000 1.000000 0.000000
vn 0.000000 1.000000 0.000000
vn 1.000000 0.000000 0.000000
vn 1.000000 0.000000 0.000000
vn 1.000000 0.000000 0.000000
vn 1.000000 0.000000 0.000000
vn -1.000000 0.000000 0.000000
vn -1.000000 0.000000 0.000000
vn -1.000000 0.000000 0.000000
vn -1.000000 0.000000 0.000000
vn 0.000000 0.000000 1.000000
vn 0.000000 0.000000 1.000000
vn 0.000000 0.000000 1.000000
vn 0.000000 0.000000 1.000000
vn 0.000000 1.000000 0.000000
vn 0.000000 1.000000 0.000000
vn 0.000000 1.000000 0.000000
vn 0.000000 1.000000 0.000000
vn 1.000000 0.000000 0.000000
vn 1.000000 0.000000 0.000000
vn 1.000000 0.000000 0.000000
vn 1.000000 0.000000 0.000000
vn -1.000000 0.000000 0.000000
vn -1.000000 0.000000 0.000000
vn -1.000000 0.000000 0.000000
vn -1.000000 0.000000 0.000000
vn 0.000000 0.000000 1.000000
vn 0.000000 0.000000 1.000000
vn 0.000000 0.000000 1.000000
vn 0.000000 0.000000 1.000000
vn 0.000000 1.000000 0.000000
vn 0.000000 1.000000 0.000000
vn 0.000000 1.000000 0.000000
vn 0.000000 1.000000 0.000000
vn 0.000000 -1.000000 0.000000
vn 0.000000 -1.000000 0.000000
vn 0.000000 -1.000000 0.000000
vn 0.000000 -1.000000 0.000000
vn 1.000000 0.000000 0.000000
vn 1.000000 0.000000 0.000000
vn 1.000000 0.000000 0.000000
vn 1.000000 0.000000 0.000000
vn -1.000000 0.000000 0.000000
vn -1.000000 0.000000 0.000000
vn -1.000000 0.000000 0.000000
vn -1.000000 0.000000 0.000000
vn 0.000000 0.000000 1.000000
vn 0.000000 0.000000 1.000000
vn 0.000000 0.000000 1.000000
vn 0.000000 0.000000 1.000000
vn 0.000000 -1.000000 0.000000
vn 0.000000 -1.000000 0.000000
vn 0.000000 -1.000000 0.000000
vn 0.000000 -1.000000 0.000000
vn 1.000000 0.000000 0.000000
vn 1.000000 0.000000 0.000000
vn 1.000000 0.000000 0.000000
vn 1.000000 0.000000 0.000000
vn -1.000000 0.000000 0.000000
vn -1.000000 0.000000 0.000000
vn -1.000000 0.000000 0.000000
vn -1.000000 0.000000 0.000000
vn 0.000000 1.000000 0.000000
vn 0.000000 1.000000 0.000000
vn 0.000000 1.000000 0.000000
vn 0.000000 1.000000 0.000000
vn 0.000000 -1.000000 0.000000
vn 0.000000 -1.000000 0.000000
vn 0.000000 -1.000000 0.000000
vn 0.000000 -1.000000 0.000000
vn 0.000000 -1.000000 0.000000
vn 0.000000 -1.000000 0.000000
vn 0.000000 -1.000000 0.000000
vn 0.000000 -1.000000 0.000000
vn 1.000000 0.000000 0.000000
vn 1.000000 0.000000 0.000000
vn 1.000000 0.000000 0.000000
vn 1.000000 0.000000 0.000000
vn -1.000000 0.000000 0.000000
vn -1.000000 0.000000 0.000000
vn -1.000000 0.000000 0.000000
vn -1.000000 0.000000 0.000000
vn -0.005780 -0.001143 0.999983
vn -0.001404 -0.001872 0.999997
vn -0.001220 0.000594 0.999999
vn -0.003225 0.004031 0.999987
vn 0.001404 -0.001869 0.999997
vn 0.005795 -0.001148 0.999983
vn 0.003230 0.004047 0.999987
vn 0.001227 0.000558 0.999999
vn -0.000056 -0.010839 0.999941
vn 0.008532 -0.000318 0.999964
vn -0.008515 -0.000330 0.999964
vn -0.004830 0.004394 0.999979
vn 0.004833 0.004391 0.999979
vn -0.000025 -0.010757 0.999942
vn 0.000004 -0.010748 0.999942
vn 0.000004 -0.010748 0.999942
vn -0.000008 -0.010758 0.999942
vn -0.000007 -0.010758 0.999942
vn 0.000000 0.000000 1.000000
vn 0.000000 0.000000 1.000000
vn 0.000000 0.000000 1.000000
vn 0.000000 0.000000 1.000000
vn 0.000000 1.000000 -0.000000
vn 0.000000 1.000000 -0.000000
vn 0.000000 1.000000 -0.000000
vn 0.000000 1.000000 -0.000000
vn 0.000000 0.000000 -1.000000
vn 0.000000 0.000000 -1.000000
vn 0.000000 0.000000 -1.000000
vn 0.000000 0.000000 -1.000000
vn 0.828609 0.000000 0.559828
vn 0.828609 0.000000 0.559828
vn 0.828609 0.000000 0.559828
vn 0.828609 0.000000 0.559828
vn -0.828609 0.000000 0.559828
vn -0.828609 0.000000 0.559828
vn -0.828609 0.000000 0.559828
vn -0.828609 0.000000 0.559828
vn 0.000000 0.000000 1.000000
vn 0.000000 0.000000 1.000000
vn 0.000000 0.000000 1.000000
vn 0.000000 0.000000 1.000000
vn 0.000000 -1.000000 0.000000
vn 0.000000 -1.000000 0.000000
vn 0.000000 -1.000000 0.000000
vn 0.000000 -1.000000 0.000000
vn 1.000000 0.000000 0.000000
vn 1.000000 0.000000 0.000000
vn 1.000000 0.000000 0.000000
vn 1.000000 0.000000 0.000000
vn -1.000000 0.000000 0.000000
vn -1.000000 0.000000 0.000000
vn -1.000000 0.000000 0.000000
vn -1.000000 0.000000 0.000000
vn 0.000000 0.000000 1.000000
vn 0.000000 0.000000 1.000000
vn 0.000000 0.000000 1.000000
vn 0.000000 0.000000 1.000000
vn 0.000000 1.000000 0.000000
vn 0.000000 1.000000 0.000000
vn 0.000000 1.000000 0.000000
vn 0.000000 1.000000 0.000000
vn 0.000000 -1.000000 0.000000
vn 0.000000 -1.000000 0.000000
vn 0.000000 -1.000000 0.000000
vn 0.000000 -1.000000 0.000000
vn 1.000000 0.000000 0.000000
vn 1.000000 0.000000 0.000000
vn 1.000000 0.000000 0.000000
vn 1.000000 0.000000 0.000000
vn -1.000000 0.000000 0.000000
vn -1.000000 0.000000 0.000000
vn -1.000000 0.000000 0.000000
vn -1.000000 0.000000 0.000000
vn 0.000000 0.000000 1.000000
vn 0.000000 0.000000 1.000000
vn 0.000000 0.000000 1.000000
vn 0.000000 0.000000 1.000000
vn 0.000000 1.000000 0.000000
vn 0.000000 1.000000 0.000000
vn 0.000000 1.000000 0.000000
vn 0.000000 1.000000 0.000000
vn 0.000000 -1.000000 0.000000
vn 0.000000 -1.000000 0.000000
vn 0.000000 -1.000000 0.000000
vn 0.000000 -1.000000 0.000000
vn 1.000000 0.000000 0.000000
vn 1.000000 0.000000 0.000000
vn 1.000000 0.000000 0.000000
vn 1.000000 0.000000 0.000000
vn -1.000000 0.000000 0.000000
vn -1.000000 0.000000 0.000000
vn -1.000000 0.000000 0.000000
vn -1.000000 0.000000 0.000000
vn -0.001968 -0.196520 0.980498
vn -0.001968 -0.196520 0.980498
vn -0.001159 -0.077419 0.996998
vn -0.001159 -0.077419 0.996998
vn 1.000000 0.000000 0.000000
vn 1.000000 0.000000 0.000000
vn 1.000000 0.000000 0.000000
vn 1.000000 0.000000 0.000000
vn 1.000000 0.000000 0.000000
vn 1.000000 -0.000000 0.000000
vn 1.000000 -0.000000 0.000000
vn -1.000000 0.000000 0.000000
vn -1.000000 0.000000 0.000000
vn -1.000000 0.000000 0.000000
vn -1.000000 -0.000000 0.000000
vn -1.000000 -0.000000 0.000000
vn -1.000000 0.000000 0.000000
vn -1.000000 0.000000 0.000000
vn 0.000000 0.000000 1.000000
vn 0.000000 0.000000 1.000000
vn 0.000000 0.000000 1.000000
vn 0.000000 0.000000 1.000000
vn -0.020027 -0.999799 0.000000
vn -0.020027 -0.999799 0.000000
vn -0.020027 -0.999799 0.000000
vn -0.020027 -0.999799 0.000000
vn 1.000000 -0.000000 0.000000
vn 1.000000 -0.000000 0.000000
vn -1.000000 0.000000 0.000000
vn -1.000000 -0.000000 0.000000
vn 1.000000 0.000000 0.000000
vn 0.000000 0.090930 0.995857
vn 0.000000 0.090930 0.995857
vn -1.000000 -0.000000 0.000000
vn 0.000000 0.000000 1.000000
vn 0.000000 0.000000 1.000000
vn 0.000000 0.000000 1.000000
vn 0.000000 0.000000 1.000000
vn 0.000000 -1.000000 0.000000
vn 0.000000 -1.000000 0.000000
vn 0.000000 -1.000000 0.000000
vn 0.000000 -1.000000 0.000000
vn 1.000000 0.000000 0.000000
vn 1.000000 0.000000 0.000000
vn 1.000000 0.000000 0.000000
vn 1.000000 0.000000 0.000000
vn -1.000000 0.000000 0.000000
vn -1.000000 0.000000 0.000000
vn -1.000000 0.000000 0.000000
vn -1.000000 0.000000 0.000000
vn -0.001968 -0.196520 0.980498
vn -0.001968 -0.196520 0.980498
vn -0.001159 -0.077419 0.996998
vn -0.001159 -0.077419 0.996998
vn 1.000000 0.000000 0.000000
vn 1.000000 0.000000 0.000000
vn 1.000000 0.000000 0.000000
vn 1.000000 0.000000 0.000000
vn 1.000000 0.000000 0.000000
vn 1.000000 -0.000000 0.000000
vn 1.000000 -0.000000 0.000000
vn -1.000000 0.000000 0.000000
vn -1.000000 0.000000 0.000000
vn -1.000000 -0.000000 0.000000
vn -1.000000 -0.000000 0.000000
vn -1.000000 0.000000 0.000000
vn -1.000000 0.000000 0.000000
vn -1.000000 0.000000 0.000000
vn 0.000000 0.000000 1.000000
vn 0.000000 0.000000 1.000000
vn 0.000000 0.000000 1.000000
vn 0.000000 0.000000 1.000000
vn -0.020027 -0.999799 0.000000
vn -0.020027 -0.999799 0.000000
vn -0.020027 -0.999799 0.000000
vn -0.020027 -0.999799 0.000000
vn 1.000000 -0.000000 0.000000
vn 1.000000 -0.000000 0.000000
vn -1.000000 -0.000001 0.000000
vn -1.000000 -0.000000 0.000000
vn 1.000000 0.000000 0.000000
vn 0.000000 0.090930 0.995857
vn 0.000000 0.090930 0.995857
vn -1.000000 0.000000 0.000000
s off
g pCube16
usemtl initialShadingGroup
f 1/1/1 2/2/2 4/4/3 3/3/4
f 3/3/5 4/4/6 6/6/7 5/5/8
f 2/2/9 8/7/10 6/8/11 4/4/12
f 7/9/13 1/1/14 3/3/15 5/10/16
f 9/11/17 10/12/18 12/13/19 11/14/20
f 11/14/21 12/13/22 14/15/23 13/16/24
f 10/12/25 16/17/26 14/18/27 12/13/28
f 15/19/29 9/11/30 11/14/31 13/20/32
f 17/21/33 18/22/34 20/23/35 19/24/36
f 19/24/37 20/23/38 22/25/39 21/26/40
f 23/27/41 24/28/42 18/29/43 17/30/44
f 18/22/45 24/31/46 22/32/47 20/23/48
f 23/33/49 17/21/50 19/24/51 21/34/52
f 25/35/53 26/36/54 28/37/55 27/38/56
f 31/39/57 32/40/58 26/41/59 25/42/60
f 26/36/61 32/43/62 30/44/63 28/37/64
f 31/45/65 25/35/66 27/38/67 29/46/68
f 39/47/69 40/48/70 34/49/71 33/50/72
f 35/51/73 36/52/74 38/53/75 52/54/76 50/55/77 49/56/78 51/57/79 37/58/80
f 38/59/81 36/60/82 34/61/83 40/62/84
f 35/63/85 37/64/86 39/65/87 33/66/88
s 1
f 41/67/89 42/68/90 46/69/91 45/70/92
f 43/71/93 44/72/94 48/73/95 47/74/96
f 45/70/92 46/69/91 47/74/96 48/73/95
f 44/72/94 52/75/97 38/59/98
f 37/64/99 41/67/89 45/70/92 39/47/100
f 44/72/94 38/59/98 40/62/101 48/73/95
f 39/47/100 45/70/92 48/73/95 40/62/101
f 42/68/90 43/71/93 47/74/96 46/69/91
f 41/67/89 51/76/102 49/77/103 42/78/104
f 42/78/104 49/77/103 50/79/105 43/80/106
f 41/67/89 37/64/99 51/76/102
f 43/80/106 50/79/105 52/75/97 44/72/94
s off
f 53/81/107 54/82/108 56/83/109 55/84/110
f 55/84/111 56/83/112 58/85/113 57/86/114
f 57/86/115 58/85/116 60/87/117 59/88/118
f 54/82/119 60/89/120 58/90/121 56/83/122
f 59/91/123 53/81/124 55/84/125 57/92/126
f 61/93/127 62/94/128 64/95/129 63/96/130
f 67/97/131 68/98/132 62/99/133 61/100/134
f 62/94/135 68/101/136 66/102/137 64/95/138
f 67/103/139 61/93/140 63/96/141 65/104/142
f 69/105/143 70/106/144 72/107/145 71/108/146
f 71/108/147 72/107/148 74/109/149 73/110/150
f 75/111/151 76/112/152 70/113/153 69/114/154
f 70/106/155 76/115/156 74/116/157 72/107/158
f 75/117/159 69/105/160 71/108/161 73/118/162
f 77/119/163 78/120/164 80/121/165 79/122/166
f 79/122/167 80/121/168 82/123/169 81/124/170
f 83/125/171 84/126/172 78/127/173 77/128/174
f 78/120/175 84/129/176 82/130/177 80/121/178
f 83/131/179 77/119/180 79/122/181 81/132/182
s 4
f 95/133/183 96/134/184 102/135/185 103/136/186
s 5
f 86/137/187 92/138/188 99/139/189 90/140/190 88/141/191 101/142/192 94/143/193
s 6
f 91/144/194 85/145/195 93/146/196 104/147/197 87/148/198 89/149/199 100/150/200
s off
f 85/145/201 86/137/202 94/143/203 93/146/204
f 93/146/205 94/143/206 96/134/207 95/133/208
s 5
f 94/143/193 101/142/192 102/135/209 96/134/210
s 6
f 104/147/197 93/146/196 95/133/211 103/136/212
s 5
f 101/142/192 88/141/191 97/151/213 102/135/209
s 4
f 103/136/186 102/135/185 97/151/214 98/152/215
s 6
f 87/148/198 104/147/197 103/136/212 98/152/216
s off
f 105/153/217 106/154/218 108/155/219 107/156/220
f 111/157/221 112/158/222 106/159/223 105/160/224
f 106/154/225 112/161/226 110/162/227 108/155/228
f 111/163/229 105/153/230 107/156/231 109/164/232
s 7
f 123/165/233 124/166/234 130/167/235 131/168/236
s 8
f 114/169/237 120/170/238 127/171/239 118/172/240 116/173/241 129/174/242 122/175/243
s 9
f 119/176/244 113/177/245 121/178/246 132/179/247 115/180/248 117/181/249 128/182/250
s off
f 113/177/251 114/169/252 122/175/253 121/178/254
f 121/178/255 122/175/256 124/166/257 123/165/258
s 8
f 122/175/243 129/174/242 130/167/259 124/166/260
s 9
f 132/179/247 121/178/246 123/165/261 131/168/262
s 8
f 129/174/242 116/173/241 125/183/263 130/167/259
s 7
f 131/168/236 130/167/235 125/183/264 126/184/265
s 9
f 115/180/248 132/179/247 131/168/262 126/184/266
