# This file uses centimeters as units for non-parametric coordinates.

mtllib Sink.mtl
g default
v -1.108579 5.322797 -0.141421
v -1.250000 5.322797 -0.200000
v -1.391421 5.322797 -0.141421
v -1.450000 5.322797 0.000000
v -1.391421 5.322797 0.141421
v -1.250000 5.322797 0.200000
v -1.108579 5.322797 0.141421
v -1.050000 5.322797 0.000000
v -1.108579 6.572797 -0.141421
v -1.250000 6.572797 -0.200000
v -1.391421 6.572797 -0.141421
v -1.450000 6.572797 0.000000
v -1.391421 6.572797 0.141421
v -1.250000 6.572797 0.200000
v -1.108579 6.572797 0.141421
v -1.050000 6.572797 0.000000
v -1.063333 6.793318 -0.141421
v -1.185996 6.863701 -0.200000
v -1.308659 6.934084 -0.141421
v -1.359468 6.963238 -0.000000
v -1.308659 6.934084 0.141421
v -1.185996 6.863701 0.200000
v -1.063333 6.793318 0.141421
v -1.012524 6.764164 -0.000000
v -0.903009 6.966475 -0.138027
v -0.989784 7.078144 -0.196605
v -1.076560 7.189814 -0.138027
v -1.112503 7.236069 0.003394
v -1.076560 7.189814 0.144816
v -0.989784 7.078144 0.203395
v -0.903009 6.966475 0.144816
v -0.867066 6.920219 0.003395
v -0.731430 7.034814 -0.138028
v -0.761527 7.172995 -0.196606
v -0.791623 7.311177 -0.138027
v -0.804089 7.368415 0.003394
v -0.791623 7.311177 0.144816
v -0.761527 7.172995 0.203395
v -0.731430 7.034814 0.144817
v -0.718964 6.977576 0.003395
v -0.495192 7.086070 -0.138028
v -0.489374 7.227371 -0.196606
v -0.483556 7.368673 -0.138028
v -0.481145 7.427203 0.003394
v -0.483555 7.368673 0.144817
v -0.489374 7.227370 0.203396
v -0.495192 7.086069 0.144818
v -0.497602 7.027540 0.003395
v -0.283519 7.051672 -0.138029
v -0.208758 7.171718 -0.196607
v -0.133996 7.291762 -0.138028
v -0.103028 7.341488 0.003394
v -0.133996 7.291762 0.144817
v -0.208758 7.171717 0.203397
v -0.283519 7.051672 0.144818
v -0.314486 7.001947 0.003395
v -0.097472 6.930825 -0.138029
v 0.026427 6.999010 -0.196608
v 0.150326 7.067195 -0.138029
v 0.201648 7.095438 0.003395
v 0.150326 7.067195 0.144819
v 0.026426 6.999010 0.203398
v -0.097472 6.930824 0.144819
v -0.148794 6.902581 0.003394
v -0.041074 6.733001 -0.138031
v 0.099676 6.746764 -0.196611
v 0.240427 6.760528 -0.138031
v 0.298728 6.766228 0.003395
v 0.240426 6.760528 0.144820
v 0.099676 6.746764 0.203399
v -0.041074 6.733000 0.144819
v -0.099377 6.727299 0.003394
v -0.049778 6.253417 -0.170427
v 0.123832 6.249943 -0.242483
v 0.123831 6.250000 0.003394
v 0.297470 6.246189 -0.170437
v 0.369351 6.244555 0.003396
v 0.297470 6.246189 0.177226
v 0.123832 6.249943 0.249271
v -0.049778 6.253416 0.177213
v -0.121633 6.254771 0.003392
v -0.073424 6.729621 -0.170426
v 0.099678 6.746707 -0.242482
v 0.272809 6.763514 -0.170436
v 0.344479 6.770396 0.003396
v 0.272808 6.763514 0.177225
v 0.099677 6.746707 0.249270
v -0.073425 6.729620 0.177213
v -0.145068 6.722458 0.003394
v -0.500000 0.000000 0.500000
v 0.500000 0.000000 0.500000
v -0.500000 4.322797 0.500000
v 0.500000 4.322797 0.500000
v -0.500000 4.322797 -0.500000
v 0.500000 4.322797 -0.500000
v -0.500000 0.000000 -0.500000
v 0.500000 0.000000 -0.500000
v 0.392981 0.750000 -0.392981
v -0.392981 0.750000 -0.392981
v -0.392981 0.750000 0.392981
v 0.392981 0.750000 0.392981
v 0.392981 3.572797 0.392981
v -0.392981 3.572797 0.392981
v -0.392981 3.572797 -0.392981
v 0.392981 3.572797 -0.392981
v -0.500000 4.572797 0.500000
v 0.500000 4.572797 0.500000
v 0.500000 4.572797 -0.500000
v -0.500000 4.572797 -0.500000
v -1.250000 4.572797 1.250000
v 1.250000 4.572797 1.250000
v 1.250000 5.322797 1.250000
v -0.750000 5.322797 1.250000
v 1.250000 4.572797 -1.250000
v 1.250000 5.322797 -1.250000
v -1.250000 4.572797 -1.250000
v -0.750000 5.322797 -1.250000
v -1.750000 4.822797 1.750000
v 1.375000 4.822797 1.750000
v 1.375000 5.322797 1.750000
v -1.750000 5.322797 1.750000
v 1.375000 4.822797 -1.750000
v 1.375000 5.322797 -1.750000
v -1.750000 4.822797 -1.750000
v -1.750000 5.322797 -1.750000
v 0.172268 6.748798 -0.328647
v 0.296854 6.765605 -0.289466
v 0.311768 6.248281 -0.293750
v 0.186875 6.252034 -0.332842
vt 0.375000 0.312500
vt 0.406250 0.312500
vt 0.437500 0.312500
vt 0.468750 0.312500
vt 0.500000 0.312500
vt 0.531250 0.312500
vt 0.562500 0.312500
vt 0.593750 0.312500
vt 0.625000 0.312500
vt 0.375000 0.688440
vt 0.406250 0.688440
vt 0.437500 0.688440
vt 0.468750 0.688440
vt 0.500000 0.688440
vt 0.531250 0.688440
vt 0.562500 0.688440
vt 0.593750 0.688440
vt 0.625000 0.688440
vt 0.610485 0.733265
vt 0.500000 0.687500
vt 0.389515 0.733265
vt 0.343750 0.843750
vt 0.389515 0.954235
vt 0.500000 1.000000
vt 0.610485 0.954235
vt 0.656250 0.843750
vt 0.500000 0.837500
vt 0.610485 0.954235
vt 0.500000 1.000000
vt 0.389515 0.954235
vt 0.343750 0.843750
vt 0.389515 0.733265
vt 0.500000 0.687500
vt 0.610485 0.733265
vt 0.656250 0.843750
vt 0.610485 0.954235
vt 0.500000 1.000000
vt 0.389515 0.954235
vt 0.343750 0.843750
vt 0.389515 0.733265
vt 0.500000 0.687500
vt 0.610485 0.733265
vt 0.656250 0.843750
vt 0.610485 0.954235
vt 0.500000 1.000000
vt 0.389515 0.954235
vt 0.343750 0.843750
vt 0.389515 0.733265
vt 0.500000 0.687500
vt 0.610485 0.733265
vt 0.656250 0.843750
vt 0.610485 0.954235
vt 0.500000 1.000000
vt 0.389515 0.954235
vt 0.343750 0.843750
vt 0.389515 0.733265
vt 0.500000 0.687500
vt 0.610485 0.733265
vt 0.656250 0.843750
vt 0.610485 0.954235
vt 0.500000 1.000000
vt 0.389515 0.954235
vt 0.343750 0.843750
vt 0.389515 0.733265
vt 0.500000 0.687500
vt 0.610485 0.733265
vt 0.656250 0.843750
vt 0.610485 0.954235
vt 0.500000 1.000000
vt 0.389515 0.954235
vt 0.343750 0.843750
vt 0.389515 0.733265
vt 0.500000 0.687500
vt 0.610485 0.733265
vt 0.656250 0.843750
vt 0.610485 0.954235
vt 0.500000 1.000000
vt 0.389515 0.954235
vt 0.343750 0.843750
vt 0.389515 0.733265
vt 0.500000 0.687500
vt 0.610485 0.733265
vt 0.656250 0.843750
vt 0.618895 0.956036
vt 0.512912 0.983405
vt 0.390087 0.934666
vt 0.336118 0.843865
vt 0.383205 0.727257
vt 0.499665 0.678870
vt 0.616252 0.727677
vt 0.664321 0.844119
vt 0.610485 0.954235
vt 0.500000 1.000000
vt 0.389515 0.954235
vt 0.343750 0.843750
vt 0.389515 0.733265
vt 0.500000 0.687500
vt 0.610485 0.733265
vt 0.656250 0.843750
vt 0.375000 0.039280
vt 0.625000 0.039280
vt 0.625000 0.159658
vt 0.375000 0.159658
vt 0.375000 0.250000
vt 0.625000 0.250000
vt 0.625000 0.500000
vt 0.375000 0.500000
vt 0.375000 0.590342
vt 0.625000 0.590342
vt 0.625000 0.710720
vt 0.375000 0.710720
vt 0.875000 0.039280
vt 0.875000 0.159658
vt 0.125000 0.039280
vt 0.125000 0.159658
vt 0.625000 0.750000
vt 0.375000 0.750000
vt 0.125000 0.000000
vt 0.375000 0.000000
vt 0.625000 0.000000
vt 0.875000 0.000000
vt 0.625000 0.250000
vt 0.375000 0.250000
vt 0.125000 0.250000
vt 0.375000 0.500000
vt 0.625000 0.500000
vt 0.875000 0.250000
vt 0.375000 0.250000
vt 0.625000 0.250000
vt 0.625000 0.250000
vt 0.375000 0.250000
vt 0.625000 0.500000
vt 0.625000 0.500000
vt 0.375000 0.500000
vt 0.375000 0.500000
vt 0.625000 0.250000
vt 0.375000 0.250000
vt 0.375000 0.250000
vt 0.625000 0.250000
vt 0.625000 0.500000
vt 0.625000 0.500000
vt 0.375000 0.500000
vt 0.375000 0.500000
vt 0.500000 1.000000
vt 0.389515 0.954235
vt 0.389515 0.954235
vt 0.500000 1.000000
vn 0.382683 0.000000 -0.923880
vn 0.382683 0.000000 -0.923880
vn 0.383306 -0.012405 -0.923538
vn 0.383441 -0.015257 -0.923439
vn -0.382683 0.000000 -0.923880
vn -0.382683 0.000000 -0.923880
vn -0.383258 0.015920 -0.923504
vn -0.383377 0.019605 -0.923384
vn -0.923880 0.000000 -0.382683
vn -0.923880 0.000000 -0.382683
vn -0.923123 0.047085 -0.381612
vn -0.922958 0.051221 -0.381477
vn -0.923880 0.000000 0.382683
vn -0.923880 0.000000 0.382683
vn -0.922958 0.051221 0.381478
vn -0.923123 0.047085 0.381612
vn -0.382684 0.000000 0.923880
vn -0.382684 0.000000 0.923880
vn -0.383377 0.019605 0.923384
vn -0.383258 0.015920 0.923504
vn 0.382683 0.000000 0.923880
vn 0.382683 0.000000 0.923880
vn 0.383441 -0.015257 0.923439
vn 0.383306 -0.012405 0.923538
vn 0.923879 0.000000 0.382684
vn 0.923879 0.000000 0.382684
vn 0.923860 -0.027294 0.381756
vn 0.923887 -0.025134 0.381840
vn 0.923879 0.000000 -0.382684
vn 0.923879 0.000000 -0.382684
vn 0.923887 -0.025134 -0.381840
vn 0.923860 -0.027294 -0.381756
vn -0.679777 -0.218288 -0.700181
vn -0.341120 -0.486409 -0.804390
vn -0.020806 -0.999784 -0.000001
vn -0.019970 -0.999768 -0.008018
vn 0.886433 -0.278633 0.369595
vn 0.710502 -0.145678 0.688452
vn 0.021228 -0.181085 0.983238
vn -0.679781 -0.218292 0.700176
vn -0.972185 -0.234214 -0.000001
vn 0.339826 -0.172490 -0.924535
vn 0.342091 -0.168237 -0.924484
vn -0.334163 0.179934 -0.925180
vn -0.336840 0.175202 -0.925118
vn -0.820256 0.423347 -0.384653
vn -0.822977 0.418109 -0.384570
vn -0.824024 0.416304 0.384285
vn -0.822591 0.419087 0.384330
vn -0.342643 0.168111 0.924302
vn -0.340548 0.172003 0.924360
vn 0.334881 -0.177033 0.925480
vn 0.331874 -0.182354 0.925531
vn 0.817385 -0.427289 0.386402
vn 0.813497 -0.434595 0.386458
vn 0.817576 -0.427335 -0.385947
vn 0.819196 -0.424244 -0.385921
vn 0.231887 -0.302302 -0.924577
vn 0.227055 -0.305893 -0.924595
vn -0.223389 0.311522 -0.923608
vn -0.220096 0.313855 -0.923609
vn -0.544088 0.746586 -0.382854
vn -0.541802 0.748249 -0.382850
vn -0.543822 0.746629 0.383149
vn -0.547985 0.743576 0.383156
vn -0.226880 0.306489 0.924440
vn -0.230882 0.303493 0.924438
vn 0.218647 -0.315024 0.923555
vn 0.222544 -0.312321 0.923542
vn 0.539019 -0.750142 0.383074
vn 0.542453 -0.747674 0.383053
vn 0.549041 -0.742585 -0.383565
vn 0.542510 -0.747349 -0.383606
vn 0.108386 -0.372439 -0.921706
vn 0.111685 -0.371620 -0.921642
vn -0.109362 0.371446 -0.921991
vn -0.113083 0.370519 -0.921916
vn -0.265831 0.886615 -0.378482
vn -0.269605 0.885509 -0.378401
vn -0.269605 0.885508 0.378402
vn -0.265832 0.886614 0.378483
vn -0.113083 0.370521 0.921915
vn -0.109363 0.371449 0.921990
vn 0.111685 -0.371621 0.921642
vn 0.108385 -0.372440 0.921706
vn 0.260912 -0.888802 0.376770
vn 0.258198 -0.889572 0.376823
vn 0.258199 -0.889572 -0.376823
vn 0.260913 -0.888802 -0.376770
vn 0.003912 -0.385686 -0.922622
vn 0.008678 -0.385362 -0.922725
vn 0.007867 0.384739 -0.922992
vn 0.004868 0.384614 -0.923065
vn 0.032447 0.924041 -0.380913
vn 0.030443 0.924088 -0.380966
vn 0.030443 0.924087 0.380967
vn 0.032447 0.924041 0.380914
vn 0.004868 0.384616 0.923064
vn 0.007868 0.384741 0.922991
vn 0.008678 -0.385363 0.922724
vn 0.003912 -0.385687 0.922621
vn 0.047965 -0.924293 0.378659
vn 0.041813 -0.924644 0.378530
vn 0.041813 -0.924643 -0.378533
vn 0.047965 -0.924292 -0.378662
vn -0.158817 -0.357251 -0.920407
vn -0.143459 -0.363197 -0.920602
vn 0.168690 0.349810 -0.921508
vn 0.156525 0.355178 -0.921601
vn 0.406354 0.831765 -0.378211
vn 0.396231 0.836610 -0.378266
vn 0.396231 0.836610 0.378265
vn 0.406354 0.831765 0.378211
vn 0.156525 0.355179 0.921601
vn 0.168690 0.349810 0.921508
vn -0.143459 -0.363199 0.920601
vn -0.158818 -0.357253 0.920406
vn -0.317305 -0.872401 0.371799
vn -0.334729 -0.866012 0.371456
vn -0.334728 -0.866010 -0.371461
vn -0.317305 -0.872399 -0.371804
vn -0.307653 -0.215106 -0.926865
vn -0.297293 -0.230802 -0.926470
vn 0.311268 0.212458 -0.926269
vn 0.303459 0.224615 -0.925992
vn 0.758239 0.524215 -0.387650
vn 0.751440 0.534085 -0.387417
vn 0.751438 0.534086 0.387418
vn 0.758238 0.524216 0.387651
vn 0.303457 0.224615 0.925992
vn 0.311267 0.212457 0.926269
vn -0.297294 -0.230805 0.926469
vn -0.307654 -0.215111 0.926864
vn -0.722120 -0.570855 0.390726
vn -0.735905 -0.552561 0.391305
vn -0.735905 -0.552559 -0.391309
vn -0.722120 -0.570853 -0.390730
vn -0.374335 -0.107824 -0.921004
vn -0.374335 -0.107824 -0.921004
vn 0.373889 0.109281 -0.921013
vn 0.373889 0.109281 -0.921013
vn 0.888936 0.261674 -0.375925
vn 0.888936 0.261674 -0.375925
vn 0.888935 0.261674 0.375928
vn 0.888935 0.261674 0.375928
vn 0.373885 0.109278 0.921015
vn 0.373885 0.109278 0.921015
vn -0.374336 -0.107830 0.921002
vn -0.374336 -0.107830 0.921002
vn -0.891513 -0.252839 0.375867
vn -0.891513 -0.252839 0.375867
vn -0.891513 -0.252836 -0.375870
vn -0.891513 -0.252836 -0.375870
vn -0.383119 -0.018820 -0.923507
vn -0.383119 -0.018820 -0.923507
vn 0.298524 0.016669 -0.954257
vn 0.298524 0.016669 -0.954257
vn 0.298524 0.016669 -0.954257
vn 0.298524 0.016669 -0.954257
vn 0.923185 0.043837 -0.381847
vn 0.923185 0.043837 -0.381847
vn 0.923185 0.043837 -0.381847
vn 0.923185 0.043837 -0.381847
vn 0.923183 0.043838 0.381852
vn 0.923183 0.043838 0.381852
vn 0.383058 0.018442 0.923540
vn 0.383058 0.018442 0.923540
vn -0.383126 -0.018822 0.923504
vn -0.383126 -0.018822 0.923504
vn -0.923097 -0.046046 0.381801
vn -0.923097 -0.046046 0.381801
vn -0.923095 -0.046043 -0.381805
vn -0.923095 -0.046043 -0.381805
vn -0.101409 0.994842 -0.002502
vn -0.097450 0.995237 -0.002623
vn -0.100014 0.994841 -0.016997
vn -0.101415 0.994841 -0.002501
vn -0.093936 0.995576 -0.002148
vn -0.098677 0.994969 -0.017325
vn -0.091943 0.995764 0.000002
vn -0.091943 0.995764 0.000002
vn -0.093936 0.995576 0.002139
vn -0.093931 0.995576 0.002139
vn -0.097452 0.995237 0.002614
vn -0.097453 0.995237 0.002614
vn -0.101410 0.994842 0.002506
vn -0.101417 0.994841 0.002505
vn -0.103846 0.994594 0.000002
vn -0.103846 0.994594 0.000002
vn 0.000000 0.000000 1.000000
vn 0.000000 0.000000 1.000000
vn 0.000000 0.000000 1.000000
vn 0.000000 0.000000 1.000000
vn 0.000000 1.000000 0.000000
vn 0.000000 1.000000 0.000000
vn 0.000000 1.000000 0.000000
vn 0.000000 1.000000 0.000000
vn 0.000000 0.000000 -1.000000
vn 0.000000 0.000000 -1.000000
vn 0.000000 0.000000 -1.000000
vn 0.000000 0.000000 -1.000000
vn 1.000000 0.000000 0.000000
vn 1.000000 0.000000 0.000000
vn 1.000000 0.000000 0.000000
vn 1.000000 0.000000 0.000000
vn -1.000000 0.000000 0.000000
vn -1.000000 0.000000 0.000000
vn -1.000000 0.000000 0.000000
vn -1.000000 0.000000 0.000000
vn 0.000000 0.141261 -0.989972
vn 0.000000 0.141261 -0.989972
vn 0.000000 0.141261 -0.989972
vn 0.000000 0.141261 -0.989972
vn -0.989972 0.141261 0.000000
vn -0.989972 0.141261 0.000000
vn -0.989972 0.141261 0.000000
vn -0.989972 0.141261 0.000000
vn 0.000000 0.141261 0.989972
vn 0.000000 0.141261 0.989972
vn 0.000000 0.141261 0.989972
vn 0.000000 0.141261 0.989972
vn 0.989972 0.141261 0.000000
vn 0.989972 0.141261 0.000000
vn 0.989972 0.141261 0.000000
vn 0.989972 0.141261 0.000000
vn 0.000000 -0.141261 0.989972
vn 0.000000 -0.141261 0.989972
vn 0.000000 -0.141261 0.989972
vn 0.000000 -0.141261 0.989972
vn -0.989972 -0.141261 0.000000
vn -0.989972 -0.141261 0.000000
vn -0.989972 -0.141261 0.000000
vn -0.989972 -0.141261 0.000000
vn 0.000000 -0.141261 -0.989972
vn 0.000000 -0.141261 -0.989972
vn 0.000000 -0.141261 -0.989972
vn 0.000000 -0.141261 -0.989972
vn 0.989972 -0.141261 0.000000
vn 0.989972 -0.141261 0.000000
vn 0.989972 -0.141261 0.000000
vn 0.989972 -0.141261 0.000000
vn 0.000000 0.000000 1.000000
vn 0.000000 0.000000 1.000000
vn 0.000000 0.000000 1.000000
vn 0.000000 0.000000 1.000000
vn 1.000000 0.000000 0.000000
vn 1.000000 0.000000 0.000000
vn 1.000000 0.000000 0.000000
vn 1.000000 0.000000 0.000000
vn 0.000000 0.000000 -1.000000
vn 0.000000 0.000000 -1.000000
vn 0.000000 0.000000 -1.000000
vn 0.000000 0.000000 -1.000000
vn -1.000000 0.000000 0.000000
vn -1.000000 0.000000 0.000000
vn -1.000000 0.000000 0.000000
vn -1.000000 0.000000 0.000000
vn 0.000000 -0.948684 0.316227
vn 0.000000 -0.948684 0.316227
vn 0.000000 -0.948684 0.316227
vn 0.000000 -0.948684 0.316227
vn 0.000000 0.707107 -0.707107
vn 0.000000 0.707107 -0.707107
vn 0.000000 0.707107 -0.707107
vn 0.000000 0.707107 -0.707107
vn 0.316228 -0.948683 0.000000
vn 0.316228 -0.948683 0.000000
vn 0.316228 -0.948683 0.000000
vn 0.316228 -0.948683 0.000000
vn -0.707107 0.707107 0.000000
vn -0.707107 0.707107 0.000000
vn -0.707107 0.707107 0.000000
vn -0.707107 0.707107 0.000000
vn 0.000000 -0.948684 -0.316227
vn 0.000000 -0.948684 -0.316227
vn 0.000000 -0.948684 -0.316227
vn 0.000000 -0.948684 -0.316227
vn 0.000000 0.707107 0.707107
vn 0.000000 0.707107 0.707107
vn 0.000000 0.707107 0.707107
vn 0.000000 0.707107 0.707107
vn -0.316228 -0.948683 0.000000
vn -0.316228 -0.948683 0.000000
vn -0.316228 -0.948683 0.000000
vn -0.316228 -0.948683 0.000000
vn 0.948683 0.316228 0.000000
vn 0.948683 0.316228 0.000000
vn 0.948683 0.316228 0.000000
vn 0.948683 0.316228 0.000000
vn 0.000000 -0.894427 0.447214
vn 0.000000 -0.894427 0.447214
vn 0.000000 -0.894427 0.447214
vn 0.000000 -0.894427 0.447214
vn 0.000000 1.000000 0.000000
vn 0.000000 1.000000 0.000000
vn 0.000000 1.000000 0.000000
vn 0.000000 1.000000 0.000000
vn 0.894427 -0.447214 0.000000
vn 0.894427 -0.447214 0.000000
vn 0.894427 -0.447214 0.000000
vn 0.894427 -0.447214 0.000000
vn 0.000000 1.000000 0.000000
vn 0.000000 1.000000 0.000000
vn 0.000000 1.000000 0.000000
vn 0.000000 1.000000 0.000000
vn 0.000000 -0.894427 -0.447214
vn 0.000000 -0.894427 -0.447214
vn 0.000000 -0.894427 -0.447214
vn 0.000000 -0.894427 -0.447214
vn 0.000000 1.000000 -0.000001
vn 0.000000 1.000000 -0.000001
vn 0.000000 1.000000 -0.000001
vn 0.000000 1.000000 -0.000001
vn -0.447214 -0.894427 0.000000
vn -0.447214 -0.894427 0.000000
vn -0.447214 -0.894427 0.000000
vn -0.447214 -0.894427 0.000000
vn 0.000000 1.000000 0.000000
vn 0.000000 1.000000 0.000000
vn 0.000000 1.000000 0.000000
vn 0.000000 1.000000 0.000000
vn -0.101914 0.994407 -0.027721
vn -0.101914 0.994407 -0.027721
vn 0.986935 0.037101 0.156789
vn 0.986935 0.037101 0.156789
vn 0.986935 0.037101 0.156789
vn 0.986935 0.037101 0.156789
vn -0.015732 -0.999557 -0.025258
vn -0.015732 -0.999557 -0.025258
vn -0.792320 -0.028337 -0.609448
vn -0.792320 -0.028337 -0.609448
vn -0.792320 -0.028337 -0.609448
vn -0.792320 -0.028337 -0.609448
s 1
g pCylinder3
usemtl initialShadingGroup
f 1/1/1 2/2/2 10/11/3 9/10/4
s 2
f 2/2/5 3/3/6 11/12/7 10/11/8
s 3
f 3/3/9 4/4/10 12/13/11 11/12/12
s 4
f 4/4/13 5/5/14 13/14/15 12/13/16
s 5
f 5/5/17 6/6/18 14/15/19 13/14/20
s 6
f 6/6/21 7/7/22 15/16/23 14/15/24
s 7
f 7/7/25 8/8/26 16/17/27 15/16/28
s 8
f 8/8/29 1/9/30 9/18/31 16/17/32
s 9
f 73/84/33 74/85/34 75/27/35
f 74/85/34 76/86/36 75/27/35
f 76/86/36 77/87/37 75/27/35
f 77/87/37 78/88/38 75/27/35
f 78/88/38 79/89/39 75/27/35
f 79/89/39 80/90/40 75/27/35
f 80/90/40 81/91/41 75/27/35
f 81/91/41 73/84/33 75/27/35
s 1
f 9/25/4 10/24/3 18/29/42 17/28/43
s 2
f 10/24/8 11/23/7 19/30/44 18/29/45
s 3
f 11/23/12 12/22/11 20/31/46 19/30/47
s 4
f 12/22/16 13/21/15 21/32/48 20/31/49
s 5
f 13/21/20 14/20/19 22/33/50 21/32/51
s 6
f 14/20/24 15/19/23 23/34/52 22/33/53
s 7
f 15/19/28 16/26/27 24/35/54 23/34/55
s 8
f 16/26/32 9/25/31 17/28/56 24/35/57
s 1
f 17/28/43 18/29/42 26/37/58 25/36/59
s 2
f 18/29/45 19/30/44 27/38/60 26/37/61
s 3
f 19/30/47 20/31/46 28/39/62 27/38/63
s 4
f 20/31/49 21/32/48 29/40/64 28/39/65
s 5
f 21/32/51 22/33/50 30/41/66 29/40/67
s 6
f 22/33/53 23/34/52 31/42/68 30/41/69
s 7
f 23/34/55 24/35/54 32/43/70 31/42/71
s 8
f 24/35/57 17/28/56 25/36/72 32/43/73
s 1
f 25/36/59 26/37/58 34/45/74 33/44/75
s 2
f 26/37/61 27/38/60 35/46/76 34/45/77
s 3
f 27/38/63 28/39/62 36/47/78 35/46/79
s 4
f 28/39/65 29/40/64 37/48/80 36/47/81
s 5
f 29/40/67 30/41/66 38/49/82 37/48/83
s 6
f 30/41/69 31/42/68 39/50/84 38/49/85
s 7
f 31/42/71 32/43/70 40/51/86 39/50/87
s 8
f 32/43/73 25/36/72 33/44/88 40/51/89
s 1
f 33/44/75 34/45/74 42/53/90 41/52/91
s 2
f 34/45/77 35/46/76 43/54/92 42/53/93
s 3
f 35/46/79 36/47/78 44/55/94 43/54/95
s 4
f 36/47/81 37/48/80 45/56/96 44/55/97
s 5
f 37/48/83 38/49/82 46/57/98 45/56/99
s 6
f 38/49/85 39/50/84 47/58/100 46/57/101
s 7
f 39/50/87 40/51/86 48/59/102 47/58/103
s 8
f 40/51/89 33/44/88 41/52/104 48/59/105
s 1
f 41/52/91 42/53/90 50/61/106 49/60/107
s 2
f 42/53/93 43/54/92 51/62/108 50/61/109
s 3
f 43/54/95 44/55/94 52/63/110 51/62/111
s 4
f 44/55/97 45/56/96 53/64/112 52/63/113
s 5
f 45/56/99 46/57/98 54/65/114 53/64/115
s 6
f 46/57/101 47/58/100 55/66/116 54/65/117
s 7
f 47/58/103 48/59/102 56/67/118 55/66/119
s 8
f 48/59/105 41/52/104 49/60/120 56/67/121
s 1
f 49/60/107 50/61/106 58/69/122 57/68/123
s 2
f 50/61/109 51/62/108 59/70/124 58/69/125
s 3
f 51/62/111 52/63/110 60/71/126 59/70/127
s 4
f 52/63/113 53/64/112 61/72/128 60/71/129
s 5
f 53/64/115 54/65/114 62/73/130 61/72/131
s 6
f 54/65/117 55/66/116 63/74/132 62/73/133
s 7
f 55/66/119 56/67/118 64/75/134 63/74/135
s 8
f 56/67/121 49/60/120 57/68/136 64/75/137
s 1
f 57/68/123 58/69/122 66/77/138 65/76/139
s 2
f 58/69/125 59/70/124 67/78/140 66/77/141
s 3
f 59/70/127 60/71/126 68/79/142 67/78/143
s 4
f 60/71/129 61/72/128 69/80/144 68/79/145
s 5
f 61/72/131 62/73/130 70/81/146 69/80/147
s 6
f 62/73/133 63/74/132 71/82/148 70/81/149
s 7
f 63/74/135 64/75/134 72/83/150 71/82/151
s 8
f 64/75/137 57/68/136 65/76/152 72/83/153
s 9
f 82/92/154 83/93/155 74/85/34 73/84/33
s off
f 126/144/156 127/145/157 128/146/158 129/147/159
f 84/94/160 85/95/161 77/87/162 76/86/163
s 9
f 85/95/164 86/96/165 78/88/38 77/87/37
f 86/96/166 87/97/167 79/89/39 78/88/38
f 87/97/168 88/98/169 80/90/40 79/89/39
f 88/98/170 89/99/171 81/91/41 80/90/40
f 89/99/172 82/92/173 73/84/33 81/91/41
s 10
f 65/76/174 66/77/175 83/93/176 82/92/177
f 66/77/175 67/78/178 84/94/179 83/93/176
f 67/78/178 68/79/180 85/95/181 84/94/179
f 68/79/180 69/80/182 86/96/183 85/95/181
f 69/80/182 70/81/184 87/97/185 86/96/183
f 70/81/184 71/82/186 88/98/187 87/97/185
f 71/82/186 72/83/188 89/99/189 88/98/187
f 72/83/188 65/76/174 82/92/177 89/99/189
s off
f 100/100/190 101/101/191 102/102/192 103/103/193
f 106/104/194 107/105/195 108/106/196 109/107/197
f 104/108/198 105/109/199 98/110/200 99/111/201
f 101/101/202 98/112/203 105/113/204 102/102/205
f 99/114/206 100/100/207 103/103/208 104/115/209
f 99/111/210 98/110/211 97/116/212 96/117/213
f 96/118/214 90/119/215 100/100/216 99/114/217
f 90/119/218 91/120/219 101/101/220 100/100/221
f 91/120/222 97/121/223 98/112/224 101/101/225
f 103/103/226 102/102/227 93/122/228 92/123/229
f 104/115/230 103/103/231 92/123/232 94/124/233
f 94/125/234 95/126/235 105/109/236 104/108/237
f 102/102/238 105/113/239 95/127/240 93/122/241
f 118/128/242 119/129/243 120/130/244 121/131/245
f 119/129/246 122/132/247 123/133/248 120/130/249
f 122/132/250 124/134/251 125/135/252 123/133/253
f 124/134/254 118/128/255 121/131/256 125/135/257
f 92/123/258 93/122/259 111/136/260 110/137/261
f 107/105/262 106/104/263 113/138/264 112/139/265
f 93/122/266 95/126/267 114/140/268 111/136/269
f 108/106/270 107/105/271 112/139/272 115/141/273
f 95/126/274 94/125/275 116/142/276 114/140/277
f 109/107/278 108/106/279 115/141/280 117/143/281
f 94/125/282 92/123/283 110/137/284 116/142/285
f 106/104/286 109/107/287 117/143/288 113/138/289
f 110/137/290 111/136/291 119/129/292 118/128/293
f 112/139/294 113/138/295 121/131/296 120/130/297
f 111/136/298 114/140/299 122/132/300 119/129/301
f 115/141/302 112/139/303 120/130/304 123/133/305
f 114/140/306 116/142/307 124/134/308 122/132/309
f 117/143/310 115/141/311 123/133/312 125/135/313
f 116/142/314 110/137/315 118/128/316 124/134/317
f 113/138/318 117/143/319 125/135/320 121/131/321
s 10
f 83/93/176 84/94/179 127/145/322 126/144/323
s off
f 84/94/324 76/86/325 128/146/326 127/145/327
s 9
f 76/86/36 74/85/34 129/147/328 128/146/329
s off
f 74/85/330 83/93/331 126/144/332 129/147/333
