# This file uses centimeters as units for non-parametric coordinates.

mtllib Lamp_Hanging.mtl
g default
v 1.299038 -0.125000 -0.750000
v 0.750000 -0.125000 -1.299038
v 0.000000 -0.125000 -1.500000
v -0.750000 -0.125000 -1.299038
v -1.299038 -0.125000 -0.750000
v -1.500000 -0.125000 0.000000
v -1.299038 -0.125000 0.750000
v -0.750000 -0.125000 1.299038
v 0.000000 -0.125000 1.500000
v 0.750000 -0.125000 1.299038
v 1.299038 -0.125000 0.750000
v 1.500000 -0.125000 0.000000
v 0.131426 -0.500000 -0.075880
v 0.075880 -0.500000 -0.131426
v 0.000000 -0.500000 -0.151760
v -0.075880 -0.500000 -0.131426
v -0.131426 -0.500000 -0.075880
v -0.151760 -0.500000 0.000000
v -0.131426 -0.500000 0.075880
v -0.075880 -0.500000 0.131426
v 0.000000 -0.500000 0.151760
v 0.075880 -0.500000 0.131426
v 0.131426 -0.500000 0.075880
v 0.151760 -0.500000 0.000000
v 0.131426 -6.875000 -0.075880
v 0.075880 -6.875000 -0.131426
v 0.000000 -6.875000 -0.151760
v -0.075880 -6.875000 -0.131426
v -0.131426 -6.875000 -0.075880
v -0.151760 -6.875000 0.000000
v -0.131426 -6.875000 0.075880
v -0.075880 -6.875000 0.131426
v 0.000000 -6.875000 0.151760
v 0.075880 -6.875000 0.131426
v 0.131426 -6.875000 0.075880
v 0.151760 -6.875000 0.000000
v 1.380105 -6.850638 -0.796815
v 0.796815 -6.850638 -1.380105
v 0.000000 -6.850638 -1.593629
v -0.796815 -6.850638 -1.380105
v -1.380105 -6.850638 -0.796815
v -1.593629 -6.850638 0.000000
v -1.380105 -6.850638 0.796815
v -0.796815 -6.850638 1.380105
v 0.000000 -6.850638 1.593629
v 0.796815 -6.850638 1.380105
v 1.380105 -6.850638 0.796815
v 1.593629 -6.850638 0.000000
v 2.760893 -10.649362 -1.594024
v 1.594024 -10.649362 -2.760893
v 0.000000 -10.649361 0.000000
v 0.000000 -10.649362 -3.188047
v -1.594024 -10.649362 -2.760893
v -2.760893 -10.649362 -1.594024
v -3.188047 -10.649362 0.000000
v -2.760893 -10.649362 1.594024
v -1.594024 -10.649362 2.760893
v 0.000000 -10.649362 3.188047
v 1.594024 -10.649362 2.760893
v 2.760893 -10.649362 1.594024
v 3.188047 -10.649362 0.000000
v 1.299038 -0.350015 -0.750000
v 1.164565 -0.500000 -0.672362
v 0.750000 -0.350015 -1.299038
v 0.672362 -0.500000 -1.164565
v 0.000000 -0.350015 -1.500000
v 0.000000 -0.500000 -1.344724
v -0.750000 -0.350015 -1.299038
v -0.672362 -0.500000 -1.164565
v -1.299038 -0.350015 -0.750000
v -1.164565 -0.500000 -0.672362
v -1.500000 -0.350015 0.000000
v -1.344724 -0.500000 0.000000
v -1.299038 -0.350015 0.750000
v -1.164565 -0.500000 0.672362
v -0.750000 -0.350015 1.299038
v -0.672362 -0.500000 1.164565
v 0.000000 -0.350015 1.500000
v 0.000000 -0.500000 1.344724
v 0.750000 -0.350015 1.299038
v 0.672362 -0.500000 1.164565
v 1.299038 -0.350015 0.750000
v 1.164565 -0.500000 0.672362
v 1.500000 -0.350015 0.000000
v 1.344724 -0.500000 0.000000
vt 0.500000 0.150000
vt 0.578125 0.020934
vt 0.635316 0.078125
vt 0.500000 0.000000
vt 0.421875 0.020934
vt 0.364684 0.078125
vt 0.343750 0.156250
vt 0.364684 0.234375
vt 0.421875 0.291566
vt 0.500000 0.312500
vt 0.578125 0.291566
vt 0.635316 0.234375
vt 0.656250 0.156250
vt 0.578125 0.020934
vt 0.635316 0.078125
vt 0.500000 0.000000
vt 0.421875 0.020934
vt 0.364684 0.078125
vt 0.343750 0.156250
vt 0.364684 0.234375
vt 0.421875 0.291566
vt 0.500000 0.312500
vt 0.578125 0.291566
vt 0.635316 0.234375
vt 0.656250 0.156250
vt 0.578125 0.020934
vt 0.635316 0.078125
vt 0.500000 0.000000
vt 0.421875 0.020934
vt 0.364684 0.078125
vt 0.343750 0.156250
vt 0.364684 0.234375
vt 0.421875 0.291566
vt 0.500000 0.312500
vt 0.578125 0.291566
vt 0.635316 0.234375
vt 0.656250 0.156250
vt 0.375000 0.462861
vt 0.376078 0.312500
vt 0.394755 0.312500
vt 0.623922 0.312500
vt 0.605245 0.312500
vt 0.396912 0.312500
vt 0.415588 0.312500
vt 0.417745 0.312500
vt 0.436422 0.312500
vt 0.438578 0.312500
vt 0.457255 0.312500
vt 0.459412 0.312500
vt 0.478088 0.312500
vt 0.480245 0.312500
vt 0.498922 0.312500
vt 0.501078 0.312500
vt 0.519755 0.312500
vt 0.521912 0.312500
vt 0.540588 0.312500
vt 0.542745 0.312500
vt 0.561422 0.312500
vt 0.563578 0.312500
vt 0.582255 0.312500
vt 0.584412 0.312500
vt 0.603088 0.312500
vt 0.395833 0.462861
vt 0.375000 0.688440
vt 0.416667 0.462861
vt 0.395833 0.688440
vt 0.437500 0.462861
vt 0.416667 0.688440
vt 0.458333 0.462861
vt 0.437500 0.688440
vt 0.479167 0.462861
vt 0.458333 0.688440
vt 0.500000 0.462861
vt 0.479167 0.688440
vt 0.520833 0.462861
vt 0.500000 0.688440
vt 0.541667 0.462861
vt 0.520833 0.688440
vt 0.562500 0.462861
vt 0.541667 0.688440
vt 0.583333 0.462861
vt 0.562500 0.688440
vt 0.604167 0.462861
vt 0.583333 0.688440
vt 0.625000 0.462861
vt 0.625000 0.688440
vt 0.604167 0.688440
vt 0.635316 0.078125
vt 0.578125 0.020934
vt 0.578125 0.020933
vt 0.500000 0.000000
vt 0.500000 0.000000
vt 0.421875 0.020934
vt 0.421875 0.020934
vt 0.364684 0.078125
vt 0.364683 0.078125
vt 0.343750 0.156250
vt 0.343750 0.156250
vt 0.364684 0.234375
vt 0.364684 0.234375
vt 0.421875 0.291566
vt 0.421875 0.291567
vt 0.500000 0.312500
vt 0.500000 0.312500
vt 0.578125 0.291566
vt 0.578125 0.291566
vt 0.635316 0.234375
vt 0.635317 0.234375
vt 0.656250 0.156250
vt 0.656250 0.156250
vt 0.635316 0.078125
vn -0.000000 -1.000000 0.000001
vn -0.000000 -1.000000 0.000000
vn -0.000000 -1.000000 0.000000
vn 0.000000 -1.000000 0.000000
vn 0.000000 -1.000000 0.000000
vn 0.000000 -1.000000 -0.000000
vn 0.000000 -1.000000 -0.000000
vn 0.000000 -1.000000 -0.000000
vn 0.000000 -1.000000 -0.000001
vn 0.000000 -1.000000 0.000000
vn -0.000000 -1.000000 -0.000000
vn -0.000000 -1.000000 0.000000
vn -0.000000 -1.000000 0.000000
vn 0.500005 0.000000 -0.866022
vn 0.866022 0.000000 -0.500005
vn 0.866022 0.000000 -0.500005
vn 0.500005 0.000000 -0.866022
vn 0.258841 0.000000 -0.965920
vn 0.258841 0.000000 -0.965920
vn -0.500005 0.000000 -0.866022
vn -0.258841 0.000000 -0.965920
vn -0.258841 0.000000 -0.965920
vn -0.500005 0.000000 -0.866022
vn -0.866022 0.000000 -0.500005
vn -0.866022 0.000000 -0.500005
vn -0.965920 0.000000 -0.258841
vn -0.965920 0.000000 -0.258841
vn -0.866022 0.000000 0.500005
vn -0.965920 0.000000 0.258841
vn -0.965920 0.000000 0.258841
vn -0.866022 0.000000 0.500005
vn -0.500005 0.000000 0.866022
vn -0.500005 0.000000 0.866022
vn -0.258841 0.000000 0.965920
vn -0.258841 0.000000 0.965920
vn 0.500005 0.000000 0.866022
vn 0.258841 0.000000 0.965920
vn 0.258841 0.000000 0.965920
vn 0.500005 0.000000 0.866022
vn 0.866022 0.000000 0.500005
vn 0.866022 0.000000 0.500005
vn 0.965920 0.000000 0.258841
vn 0.965920 0.000000 0.258841
vn 0.965920 0.000000 -0.258841
vn 0.965920 0.000000 -0.258841
vn -0.012367 0.999847 0.012368
vn -0.012367 0.999847 0.012368
vn -0.012367 0.999847 0.012368
vn -0.012367 0.999847 0.012368
vn -0.004527 0.999847 0.016893
vn -0.004527 0.999847 0.016893
vn -0.004527 0.999847 0.016893
vn -0.004527 0.999847 0.016893
vn 0.004527 0.999847 0.016893
vn 0.004527 0.999847 0.016893
vn 0.004527 0.999847 0.016893
vn 0.004527 0.999847 0.016893
vn 0.012367 0.999847 0.012368
vn 0.012367 0.999847 0.012368
vn 0.012367 0.999847 0.012368
vn 0.012367 0.999847 0.012368
vn 0.016893 0.999847 0.004525
vn 0.016893 0.999847 0.004525
vn 0.016893 0.999847 0.004525
vn 0.016893 0.999847 0.004525
vn 0.016893 0.999847 -0.004525
vn 0.016893 0.999847 -0.004525
vn 0.016893 0.999847 -0.004525
vn 0.016893 0.999847 -0.004525
vn 0.012367 0.999847 -0.012368
vn 0.012367 0.999847 -0.012368
vn 0.012367 0.999847 -0.012368
vn 0.012367 0.999847 -0.012368
vn 0.004527 0.999847 -0.016893
vn 0.004527 0.999847 -0.016893
vn 0.004527 0.999847 -0.016893
vn 0.004527 0.999847 -0.016893
vn -0.004527 0.999847 -0.016893
vn -0.004527 0.999847 -0.016893
vn -0.004527 0.999847 -0.016893
vn -0.004527 0.999847 -0.016893
vn -0.012367 0.999847 -0.012368
vn -0.012367 0.999847 -0.012368
vn -0.012367 0.999847 -0.012368
vn -0.012367 0.999847 -0.012368
vn -0.016893 0.999847 -0.004525
vn -0.016893 0.999847 -0.004525
vn -0.016893 0.999847 -0.004525
vn -0.016893 0.999847 -0.004525
vn -0.016893 0.999847 0.004525
vn -0.016893 0.999847 0.004525
vn -0.016893 0.999847 0.004525
vn -0.016893 0.999847 0.004525
vn 0.655300 0.375716 -0.655300
vn 0.655300 0.375716 -0.655300
vn 0.655300 0.375716 -0.655300
vn 0.655300 0.375716 -0.655300
vn 0.239876 0.375717 -0.895151
vn 0.239876 0.375717 -0.895151
vn 0.239876 0.375717 -0.895151
vn 0.239876 0.375717 -0.895151
vn -0.239876 0.375717 -0.895151
vn -0.239876 0.375717 -0.895151
vn -0.239876 0.375717 -0.895151
vn -0.239876 0.375717 -0.895151
vn -0.655300 0.375716 -0.655300
vn -0.655300 0.375716 -0.655300
vn -0.655300 0.375716 -0.655300
vn -0.655300 0.375716 -0.655300
vn -0.895151 0.375717 -0.239876
vn -0.895151 0.375717 -0.239876
vn -0.895151 0.375717 -0.239876
vn -0.895151 0.375717 -0.239876
vn -0.895151 0.375717 0.239876
vn -0.895151 0.375717 0.239876
vn -0.895152 0.375717 0.239876
vn -0.895151 0.375717 0.239876
vn -0.655300 0.375716 0.655300
vn -0.655300 0.375716 0.655300
vn -0.655300 0.375716 0.655300
vn -0.655300 0.375716 0.655300
vn -0.239876 0.375717 0.895151
vn -0.239876 0.375717 0.895151
vn -0.239876 0.375717 0.895151
vn -0.239876 0.375717 0.895151
vn 0.239876 0.375717 0.895151
vn 0.239876 0.375717 0.895151
vn 0.239876 0.375717 0.895151
vn 0.239876 0.375717 0.895151
vn 0.655300 0.375716 0.655300
vn 0.655300 0.375716 0.655300
vn 0.655300 0.375716 0.655300
vn 0.655300 0.375716 0.655300
vn 0.895151 0.375717 0.239876
vn 0.895151 0.375717 0.239876
vn 0.895151 0.375717 0.239876
vn 0.895151 0.375717 0.239876
vn 0.895151 0.375717 -0.239876
vn 0.895151 0.375717 -0.239876
vn 0.895152 0.375717 -0.239876
vn 0.895151 0.375717 -0.239876
vn 0.601668 -0.719255 -0.347373
vn 0.601668 -0.719255 -0.347373
vn 0.347373 -0.719255 -0.601668
vn 0.347373 -0.719255 -0.601668
vn 0.694746 -0.719255 0.000000
vn 0.694746 -0.719255 0.000000
vn 0.000000 -0.719255 -0.694746
vn 0.000000 -0.719255 -0.694746
vn -0.347373 -0.719255 -0.601668
vn -0.347373 -0.719255 -0.601668
vn -0.601668 -0.719255 -0.347373
vn -0.601668 -0.719255 -0.347373
vn -0.694746 -0.719255 0.000000
vn -0.694746 -0.719255 0.000000
vn -0.601668 -0.719255 0.347373
vn -0.601668 -0.719255 0.347373
vn -0.347373 -0.719255 0.601668
vn -0.347373 -0.719255 0.601668
vn 0.000000 -0.719255 0.694746
vn 0.000000 -0.719255 0.694746
vn 0.347373 -0.719255 0.601668
vn 0.347373 -0.719255 0.601668
vn 0.601668 -0.719255 0.347373
vn 0.601668 -0.719255 0.347373
vn 0.866025 0.000000 -0.500000
vn 0.500000 0.000000 -0.866025
vn 0.500000 0.000000 -0.866025
vn 0.866025 0.000000 -0.500000
vn 0.258819 0.000000 -0.965926
vn 0.258819 0.000000 -0.965926
vn -0.258819 0.000000 -0.965926
vn -0.500000 0.000000 -0.866025
vn -0.500000 0.000000 -0.866025
vn -0.258819 0.000000 -0.965926
vn -0.866025 0.000000 -0.500000
vn -0.866025 0.000000 -0.500000
vn -0.965926 0.000000 -0.258819
vn -0.965926 0.000000 -0.258819
vn -0.965926 0.000000 0.258819
vn -0.866025 0.000000 0.500000
vn -0.866025 0.000000 0.500000
vn -0.965926 0.000000 0.258819
vn -0.500000 0.000000 0.866025
vn -0.500000 0.000000 0.866025
vn -0.258819 0.000000 0.965926
vn -0.258819 0.000000 0.965926
vn 0.258819 0.000000 0.965926
vn 0.500000 0.000000 0.866025
vn 0.500000 0.000000 0.866025
vn 0.258819 0.000000 0.965926
vn 0.866025 0.000000 0.500000
vn 0.866025 0.000000 0.500000
vn 0.965926 0.000000 0.258819
vn 0.965926 0.000000 0.258819
vn 0.965926 0.000000 -0.258819
vn 0.965926 0.000000 -0.258819
vn 0.000000 -1.000000 0.000000
vn 0.000000 -1.000000 -0.000000
vn 0.000000 -1.000000 -0.000000
vn 0.000000 -1.000000 0.000000
vn 0.000000 -1.000000 -0.000000
vn 0.000000 -1.000000 -0.000000
vn 0.000000 -1.000000 0.000000
vn 0.000000 -1.000000 0.000000
vn 0.000000 -1.000000 -0.000000
vn 0.000000 -1.000000 0.000000
vn 0.000000 -1.000000 0.000000
vn 0.000000 -1.000000 0.000000
vn 0.000000 -1.000000 0.000000
vn 0.000000 -1.000000 0.000000
vn 0.000000 -1.000000 -0.000000
vn 0.000000 -1.000000 -0.000000
vn 0.000000 -1.000000 0.000000
vn 0.000000 -1.000000 0.000000
vn 0.000000 -1.000000 -0.000000
vn 0.000000 -1.000000 -0.000000
vn 0.000000 -1.000000 0.000000
vn 0.000000 -1.000000 -0.000000
vn 0.000000 -1.000000 0.000000
vn 0.000000 -1.000000 0.000000
s 1
g Lamp_Hanging
usemtl initialShadingGroup
f 50/26/1 49/27/2 51/1/3
f 52/28/4 50/26/1 51/1/3
f 53/29/5 52/28/4 51/1/3
f 54/30/6 53/29/5 51/1/3
f 55/31/7 54/30/6 51/1/3
f 56/32/8 55/31/7 51/1/3
f 57/33/9 56/32/8 51/1/3
f 58/34/10 57/33/9 51/1/3
f 59/35/11 58/34/10 51/1/3
f 60/36/12 59/35/11 51/1/3
f 61/37/13 60/36/12 51/1/3
f 49/27/2 61/37/13 51/1/3
s 2
f 14/89/14 13/111/15 25/3/16 26/2/17
f 15/91/18 14/89/14 26/2/17 27/4/19
s 3
f 16/93/20 15/91/21 27/4/22 28/5/23
f 17/95/24 16/93/20 28/5/23 29/6/25
f 18/97/26 17/95/24 29/6/25 30/7/27
s 4
f 19/99/28 18/97/29 30/7/30 31/8/31
f 20/101/32 19/99/28 31/8/31 32/9/33
f 21/103/34 20/101/32 32/9/33 33/10/35
s 5
f 22/105/36 21/103/37 33/10/38 34/11/39
f 23/107/40 22/105/36 34/11/39 35/12/41
f 24/109/42 23/107/40 35/12/41 36/13/43
s 2
f 13/111/15 24/109/44 36/13/45 25/3/16
s off
f 26/2/46 25/3/47 37/15/48 38/14/49
f 27/4/50 26/2/51 38/14/52 39/16/53
f 28/5/54 27/4/55 39/16/56 40/17/57
f 29/6/58 28/5/59 40/17/60 41/18/61
f 30/7/62 29/6/63 41/18/64 42/19/65
f 31/8/66 30/7/67 42/19/68 43/20/69
f 32/9/70 31/8/71 43/20/72 44/21/73
f 33/10/74 32/9/75 44/21/76 45/22/77
f 34/11/78 33/10/79 45/22/80 46/23/81
f 35/12/82 34/11/83 46/23/84 47/24/85
f 36/13/86 35/12/87 47/24/88 48/25/89
f 25/3/90 36/13/91 48/25/92 37/15/93
f 38/14/94 37/15/95 49/27/96 50/26/97
f 39/16/98 38/14/99 50/26/100 52/28/101
f 40/17/102 39/16/103 52/28/104 53/29/105
f 41/18/106 40/17/107 53/29/108 54/30/109
f 42/19/110 41/18/111 54/30/112 55/31/113
f 43/20/114 42/19/115 55/31/116 56/32/117
f 44/21/118 43/20/119 56/32/120 57/33/121
f 45/22/122 44/21/123 57/33/124 58/34/125
f 46/23/126 45/22/127 58/34/128 59/35/129
f 47/24/130 46/23/131 59/35/132 60/36/133
f 48/25/134 47/24/135 60/36/136 61/37/137
f 37/15/138 48/25/139 61/37/140 49/27/141
s 6
f 62/38/142 63/39/143 65/40/144 64/63/145
f 63/41/143 62/85/142 84/83/146 85/42/147
f 64/63/145 65/43/144 67/44/148 66/65/149
f 66/65/149 67/45/148 69/46/150 68/67/151
f 68/67/151 69/47/150 71/48/152 70/69/153
f 70/69/153 71/49/152 73/50/154 72/71/155
f 72/71/155 73/51/154 75/52/156 74/73/157
f 74/73/157 75/53/156 77/54/158 76/75/159
f 76/75/159 77/55/158 79/56/160 78/77/161
f 78/77/161 79/57/160 81/58/162 80/79/163
f 80/79/163 81/59/162 83/60/164 82/81/165
f 82/81/165 83/61/164 85/62/147 84/83/146
s 7
f 62/38/166 64/63/167 2/66/168 1/64/169
f 64/63/167 66/65/170 3/68/171 2/66/168
s 8
f 66/65/172 68/67/173 4/70/174 3/68/175
f 68/67/173 70/69/176 5/72/177 4/70/174
f 70/69/176 72/71/178 6/74/179 5/72/177
s 9
f 72/71/180 74/73/181 7/76/182 6/74/183
f 74/73/181 76/75/184 8/78/185 7/76/182
f 76/75/184 78/77/186 9/80/187 8/78/185
s 10
f 78/77/188 80/79/189 10/82/190 9/80/191
f 80/79/189 82/81/192 11/84/193 10/82/190
f 82/81/192 84/83/194 12/87/195 11/84/193
s 7
f 84/83/196 62/85/166 1/86/169 12/87/197
s 11
f 65/90/198 63/88/199 13/111/200 14/89/201
f 67/92/202 65/90/198 14/89/201 15/91/203
f 69/94/204 67/92/202 15/91/203 16/93/205
f 71/96/206 69/94/204 16/93/205 17/95/207
f 73/98/208 71/96/206 17/95/207 18/97/209
f 75/100/210 73/98/208 18/97/209 19/99/211
f 77/102/212 75/100/210 19/99/211 20/101/213
f 79/104/214 77/102/212 20/101/213 21/103/215
f 81/106/216 79/104/214 21/103/215 22/105/217
f 83/108/218 81/106/216 22/105/217 23/107/219
f 85/110/220 83/108/218 23/107/219 24/109/221
f 63/88/199 85/110/220 24/109/221 13/111/200
